<?xml version="1.0" standalone="no"?>
<!DOCTYPE svg PUBLIC "-//W3C//DTD SVG 1.1//EN" "http://www.w3.org/Graphics/SVG/1.1/DTD/svg11.dtd" >
<!--
2013-9-30: Created.
-->
<svg>
<metadata>
Created by iconfont
</metadata>
<defs>

<font id="iconfont" horiz-adv-x="1024" >
  <font-face
    font-family="iconfont"
    font-weight="500"
    font-stretch="normal"
    units-per-em="1024"
    ascent="896"
    descent="-128"
  />
    <missing-glyph />
    
    <glyph glyph-name="rechargefill" unicode="&#59116;" d="M512 832C264.96 832 64 631.04 64 384s200.96-448 448-448 448 200.96 448 448S759.04 832 512 832zM640.768 320c17.696 0 32-14.304 32-32s-14.304-32-32-32L544 256l0-95.136c0-17.696-14.304-32-32-32s-32 14.304-32 32L480 256l-95.104 0c-17.696 0-32 14.304-32 32s14.304 32 32 32L480 320l0 64-95.104 0c-17.696 0-32 14.304-32 32s14.304 32 32 32L480 448l0 19.776-118.432 118.624c-12.544 12.48-12.064 32.736 0.416 45.248 12.512 12.576 32.704 12.512 45.216 0.064l107.584-107.36 101.632 106.784c12.288 12.832 32.416 13.216 45.152 1.12 12.8-12.192 13.056-32.48 0.864-45.248L544 463.136 544 448l96.768 0c17.696 0 32-14.304 32-32s-14.304-32-32-32L544 384l0-64L640.768 320z"  horiz-adv-x="1024" />

    
    <glyph glyph-name="recharge" unicode="&#59117;" d="M512 832C264.96 832 64 631.04 64 384s200.96-448 448-448 448 200.96 448 448S759.04 832 512 832zM512 0C300.256 0 128 172.256 128 384 128 595.744 300.256 768 512 768c211.744 0 384-172.256 384-384C896 172.256 723.744 0 512 0zM641.088 384c17.696 0 32 14.336 32 32s-14.304 32-32 32L544 448l0 15.136 118.592 123.872c12.192 12.8 12 33.056-0.8 45.248-12.736 12.16-32.832 11.712-45.088-1.12l-101.6-106.784-107.584 107.36c-12.544 12.512-32.768 12.448-45.248-0.064-12.48-12.512-13.088-32.768-0.576-45.248L480 467.776 480 448l-94.784 0c-17.664 0-32-14.336-32-32s14.336-32 32-32L480 384l0-64-94.784 0c-17.664 0-32-14.304-32-32s14.336-32 32-32L480 256l0-95.136c0-17.696 14.336-32 32-32s32 14.304 32 32L544 256l97.088 0c17.696 0 32 14.304 32 32s-14.304 32-32 32L544 320l0 64L641.088 384z"  horiz-adv-x="1024" />

    
    <glyph glyph-name="caifua" unicode="&#58984;" d="M852.288 174.261c10.111 0 18.314 7.639 18.314 17.079 0 9.473-8.204 17.116-18.314 17.116l-65.846 0 55.582 61.015c4.814 5.281 2.846 14.684-4.384 20.937-7.264 6.255-17.042 7.077-21.855 1.798l-56.819-62.365-56.8 62.365c-4.831 5.279-14.605 4.455-21.834-1.798-7.25-6.254-9.217-15.655-4.385-20.937l55.548-61.015-50.117 0c-10.112 0-18.316-7.643-18.316-17.116 0-9.44 8.205-17.079 18.316-17.079l60.603 0 0-34.196-60.603 0c-10.112 0-18.316-7.679-18.316-17.119 0-9.438 8.205-17.116 18.316-17.116l60.603 0 0-46.82c0-7.977 7.865-14.458 17.53-14.458 9.699 0 17.548 6.481 17.548 14.458l0 46.82 75.23 0c10.111 0 18.314 7.679 18.314 17.116 0 9.439-8.204 17.119-18.314 17.119l-75.23 0 0 34.196 75.23 0zM263.979 550.092c0 112.327 93.711 203.718 208.923 203.718 115.214 0 208.924-91.39 208.924-203.718 0-35.133-9.174-68.204-25.262-97.084 14.251 5.244 29.027 9.476 44.217 12.586 10.26 26.257 16.103 54.686 16.103 84.498 0 131.391-109.218 237.915-243.981 237.915-134.763 0-244.019-106.523-244.019-237.915 0-96.297 58.767-178.997 143.116-216.453-177.2-43.073-314.097-190.796-337.45-371.139l34.589 0c27.57 195.923 200.611 349.677 408.523 349.677 0.243 0 0.469 0 0.693 0l0 0.225c5.675 0.113 11.236 0.71 16.817 1.199 7.136 13.298 15.244 25.995 24.292 38.018-14.983-3.334-30.526-5.282-46.558-5.282-115.213 0-208.924 91.428-208.924 203.756zM760.222-2.677c-105.809 0-191.883 83.936-191.883 187.127 0 103.15 86.074 187.087 191.883 187.087 105.773 0 191.843-83.936 191.843-187.087 0-103.189-86.07-187.127-191.843-187.127zM760.222 405.734c-125.364 0-226.976-99.07-226.976-221.285 0-122.218 101.614-221.324 226.976-221.324 125.324 0 226.94 99.106 226.94 221.324 0 122.214-101.616 221.285-226.94 221.285z"  horiz-adv-x="1024" />

    
    <glyph glyph-name="caifub" unicode="&#58985;" d="M852.809 140.205c10.447 0 17.823-7.935 17.823-17.684 0-9.754-7.375-16.583-17.823-16.583l-75.522 0 0-47.27c0-8.242-8.109-14.939-18.13-14.939-9.983 0-17.008 6.697-17.008 14.939l0 47.27-60.411 0c-10.448 0-18.922 6.831-18.922 16.583 0 9.749 8.474 17.684 18.922 17.684l60.411 0 0 34.227-60.411 0c-10.448 0-18.922 6.796-18.922 16.583 0 9.754 8.474 17.648 18.922 17.648l49.577 0-55.207 59.735c-4.972 5.457-2.94 15.168 4.547 21.63 7.469 6.462 17.57 7.314 22.56 1.858l56.484-62.23 55.401 62.23c4.973 5.457 15.075 4.604 22.559-1.858 7.471-6.463 9.502-16.173 4.548-21.63l-55.223-59.735 64.726 0c10.448 0 18.924-7.894 18.924-17.648 0-9.789-8.476-16.583-18.924-16.583l-74.421 0 0-34.227 75.522 0zM760.565 405.173c-125.433 0-227.107-99.164-227.107-221.45 0-122.285 101.675-221.451 227.107-221.451 125.417 0 227.072 99.166 227.072 221.451 0.001 122.286-101.655 221.45-227.072 221.45zM467.378 177.637c0 137.683 99.002 252.758 231.37 281.35 11.883 27.994 18.469 58.643 18.469 90.825 0 131.281-109.129 237.715-243.777 237.715s-243.812-106.433-243.812-237.715c0-96.214 58.717-178.847 142.994-216.268-177.052-43.038-313.835-190.635-337.167-370.828l530.642 0c-60.55 52.766-98.72 129.485-98.72 214.919z"  horiz-adv-x="1024" />

    
    <glyph glyph-name="chicangdan" unicode="&#58936;" d="M512.846786 812C230.554468 812 1.71148 583.158035 1.71148 300.865717c0-282.291295 228.841965-511.134283 511.134283-511.134283 282.289248 0 511.132236 228.842988 511.132236 511.134283C1023.979022 583.158035 795.136034 812 512.846786 812zM336.156598 328.634154l-0.105401 0.105401 24.15412 24.15412 0.104377-0.104377 0 0 7.003508-7.003508 132.923382-132.923382 299.259758 299.259758-84.96102 0 0 34.158984L860.089371 546.281149l0-17.07898 0-17.07898 0-128.473023L825.931411 383.650165l0 106.597807L500.525156 164.842741l-0.287549 0.287549-0.288572-0.287549L360.310717 304.481058 174.342212 118.513576l-24.15412 24.15412L336.156598 328.634154zM142.693398 27.004419l0 34.158984 762.504334 0 0-34.158984L142.693398 27.004419z"  horiz-adv-x="1024" />

    
    <glyph glyph-name="zhuiocn" unicode="&#58892;" d="M708.074677 50.653913c-1.936095 0-3.483334 0.061398-4.559852 0.12382l-53.368488 0c-14.128789 0-25.582655 11.452843-25.582655 25.582655L624.563682 255.433856l-108.470457 0 0-179.072445c0-14.129812-11.453866-25.582655-25.582655-25.582655L312.316122 50.778756c-6.509251-0.232291-34.827203 0.086981-56.985876 20.893866-11.286044 10.597359-24.740474 30.429033-24.740474 64.719001L230.589772 352.653061l-84.934414 0c-10.354835 0-19.687388 6.242168-23.642466 15.811104s-1.7519 20.578688 5.582135 27.89021l323.364759 322.341452c10.004865 9.972119 26.203802 9.949606 36.178991-0.058328 9.974166-10.005888 9.948583-26.203802-0.058328-36.178991L207.557196 403.818371l48.616254 0c14.128789 0 25.582655-11.453866 25.582655-25.582655l0-241.845117c0-12.836353 2.892887-22.062482 8.599865-27.421536 7.690146-7.221472 19.693528-7.086395 19.809161-7.077186 0.534166 0.033769 1.070378 0.051165 1.606591 0.051165l153.155169 0L464.926892 281.016511c0 14.129812 11.453866 25.582655 25.582655 25.582655l159.635767 0c14.128789 0 25.582655-11.452843 25.582655-25.582655l0-179.072445 28.652574 0c0.880043 0 1.285273 0.001023 2.12336-0.085958 4.929266-0.296759 18.989493 0.639566 27.201525 8.324596 5.665023 5.300726 8.537444 14.118556 8.537444 26.208918L742.242871 378.235716c0 14.128789 11.453866 25.582655 25.582655 25.582655l48.755424 0L589.077469 631.322875c-9.990538 9.990538-9.990538 26.188452 0 36.178991 9.991562 9.991562 26.188452 9.991562 36.178991 0l271.176143-271.176143c7.316639-7.316639 9.505491-18.320251 5.545296-27.879977-3.959172-9.559727-13.287631-15.792685-23.635303-15.792685l-84.934414 0 0-216.262462c0-33.803897-13.759375-53.508681-25.302269-64.086597C747.077993 53.035146 720.110805 50.653913 708.074677 50.653913z"  horiz-adv-x="1024" />

    
    <glyph glyph-name="zhuiocn02" unicode="&#58893;" d="M588.664054 704.868915l308.466444-308.647569c7.316639-7.316639 9.505491-18.320251 5.545296-27.879977-3.959172-9.559727-13.287631-15.792685-23.635303-15.792685l-84.934414 0 0-216.262462c0-33.803897-13.759375-53.508681-25.302269-64.086597-21.028942-19.269879-47.996131-21.650089-60.032258-21.650089-1.936095 0-52.81181 0.12382-52.81181 0.12382-14.128789 0-25.582655 11.452843-25.582655 25.582655L630.377084 255.329479l-118.703519 0L511.673565 76.257034c0-14.129812-11.453866-25.582655-25.582655-25.582655L313.014016 50.674379c-6.509251-0.232291-34.827203 0.086981-56.985876 20.893866-11.286044 10.597359-24.740474 30.429033-24.740474 64.719001L231.287667 352.549707l-84.934414 0c-10.354835 0-19.687388 6.242168-23.642466 15.811104s-1.7519 20.578688 5.582135 27.89021l323.364759 322.341452C505.560334 772.495128 531.458167 764.899126 588.664054 704.868915z"  horiz-adv-x="1024" />

    
    <glyph glyph-name="peoplefill" unicode="&#59189;" d="M649.6 262.4c86.4 48 147.2 144 147.2 249.6 0 160-128 288-288 288s-288-128-288-288c0-108.8 57.6-201.6 147.2-249.6-121.6-48-214.4-153.6-240-288-3.2-9.6 0-19.2 6.4-25.6 3.2-9.6 12.8-12.8 22.4-12.8h704c9.6 0 19.2 3.2 25.6 12.8 6.4 6.4 9.6 16 6.4 25.6-25.6 134.4-121.6 240-243.2 288z"  horiz-adv-x="1024" />

    
    <glyph glyph-name="people" unicode="&#59190;" d="M800 512c0 160-128 288-288 288s-288-128-288-288c0-108.8 57.6-201.6 147.2-249.6-121.6-48-214.4-153.6-240-288-3.2-16 6.4-35.2 25.6-38.4h6.4c16 0 28.8 9.6 32 25.6 28.8 150.4 160 259.2 313.6 262.4h6.4c156.8 0 284.8 128 284.8 288zM288 512c0 124.8 99.2 224 224 224s224-99.2 224-224c0-121.6-99.2-220.8-220.8-224h-9.6c-121.6 3.2-217.6 102.4-217.6 224zM723.2 220.8c-16 9.6-35.2 6.4-44.8-9.6-9.6-16-6.4-35.2 9.6-44.8 73.6-51.2 124.8-121.6 140.8-204.8 3.2-16 16-25.6 32-25.6h6.4c16 3.2 28.8 19.2 25.6 38.4-19.2 99.2-80 185.6-169.6 246.4z"  horiz-adv-x="1024" />

    
    <glyph glyph-name="r" unicode="&#58927;" d="M359.6288 284.522971l0-267.351771L215.127771 17.1712 215.127771 685.521371l285.403429 0c151.7568-4.856686 228.790857-62.6688 231.2192-173.407086-2.428343-86.688914-48.186514-140.9024-137.274514-162.581943l0-3.627886c65.038629-7.226514 104.769829-56.612571 119.222857-148.128914 0-7.226514 1.170286-14.453029 3.598629-21.650286 4.798171-81.92 16.822857-134.904686 36.132571-158.983314l-155.384686 0c-14.423771 57.812114-22.908343 117.9648-25.278171 180.6336-7.226514 57.812114-27.706514 86.718171-61.410743 86.718171L359.6288 284.493714zM359.6288 573.525029l0-177.005714 119.222857 0c65.038629 0 98.7136 31.275886 101.141943 93.915429-2.428343 55.383771-36.103314 83.090286-101.141943 83.090286L359.6288 573.525029z"  horiz-adv-x="1024" />

    
    <glyph glyph-name="my" unicode="&#59275;" d="M800 512c0 160-128 288-288 288s-288-128-288-288c0-108.8 57.6-201.6 147.2-249.6-121.6-48-214.4-153.6-240-288-3.2-16 6.4-35.2 25.6-38.4h6.4c16 0 28.8 9.6 32 25.6 28.8 150.4 160 259.2 313.6 262.4h6.4c156.8 0 284.8 128 284.8 288zM288 512c0 124.8 99.2 224 224 224s224-99.2 224-224c0-121.6-99.2-220.8-220.8-224h-9.6c-121.6 3.2-217.6 102.4-217.6 224zM723.2 220.8c-16 9.6-35.2 6.4-44.8-9.6-9.6-16-6.4-35.2 9.6-44.8 73.6-51.2 124.8-121.6 140.8-204.8 3.2-16 16-25.6 32-25.6h6.4c16 3.2 28.8 19.2 25.6 38.4-19.2 99.2-80 185.6-169.6 246.4z"  horiz-adv-x="1024" />

    
    <glyph glyph-name="myfill" unicode="&#59276;" d="M649.6 262.4c86.4 48 147.2 144 147.2 249.6 0 160-128 288-288 288s-288-128-288-288c0-108.8 57.6-201.6 147.2-249.6-121.6-48-214.4-153.6-240-288-3.2-9.6 0-19.2 6.4-25.6 3.2-9.6 12.8-12.8 22.4-12.8h704c9.6 0 19.2 3.2 25.6 12.8 6.4 6.4 9.6 16 6.4 25.6-25.6 134.4-121.6 240-243.2 288z"  horiz-adv-x="1024" />

    
    <glyph glyph-name="wifiwofi" unicode="&#59143;" d="M512 56.8m-81.024 0a1.266 1.266 0 1 0 162.048 0 1.266 1.266 0 1 0-162.048 0ZM512 300C433.984 300 364.736 263.136 320.192 205.92l42.688-33.216C397.44 217.248 451.264 245.856 512 245.856s114.496-28.608 149.248-73.152l42.56 33.216C659.264 263.136 590.016 300 512 300zM512 624.224c-182.08 0-343.744-86.144-447.552-219.456l43.648-33.92C201.856 491.168 347.712 568.864 512 568.864c164.224 0 310.144-77.696 403.904-198.016l43.712 33.984C855.68 538.144 694.08 624.224 512 624.224zM512 462.112c-130.048 0-245.504-61.44-319.616-156.672l42.624-33.216C299.264 354.72 399.296 408.096 512 408.096s212.672-53.376 277.056-135.872l42.56 33.216C757.504 400.608 642.048 462.112 512 462.112z"  horiz-adv-x="1024" />

    
    <glyph glyph-name="shouji" unicode="&#58895;" d="M775.953067 794.933333 248.046933 794.933333c-36.420267 0-65.979733-29.559467-65.979733-65.979733l0-857.873067c0-36.4544 29.559467-66.013867 65.979733-66.013867l527.940267 0c36.420267 0 65.979733 29.559467 65.979733 66.013867L841.966933 728.9536C841.966933 765.373867 812.407467 794.933333 775.953067 794.933333zM248.046933 745.44l527.940267 0c9.1136 0 16.4864-7.3728 16.4864-16.4864l0-668.16L231.5264 60.7936 231.5264 728.9536C231.5264 738.033067 238.933333 745.44 248.046933 745.44zM775.953067-145.44 248.046933-145.44c-9.1136 0-16.4864 7.3728-16.4864 16.4864l0 140.219733 560.9472 0 0-140.219733C792.4736-138.033067 785.066667-145.44 775.953067-145.44zM512-62.939733m-49.493333 0a1.45 1.45 0 1 0 98.986667 0 1.45 1.45 0 1 0-98.986667 0Z"  horiz-adv-x="1024" />

    
    <glyph glyph-name="yonghu1" unicode="&#58942;" d="M520.804711 896C233.626384 896 0 666.313624 0 384 0 101.686376 233.626384-128 520.804711-128c287.178327 0 520.764507 229.686376 520.764507 512C1041.569219 666.313624 807.983039 896 520.804711 896zM264.98563-24.956733c18.413506 7.43777 41.329878 7.960424 75.704437 7.960424l49.089282 0c5.347154 0 10.33247 2.573066 13.347782 6.915116l56.406439 81.292815c2.251433 3.256537 2.934904 7.035728 2.532862 10.694307 18.574323-9.045936 38.234158-14.312682 58.53726-14.312682 20.785552 0 40.927837 5.628583 59.904201 15.036356-0.643267-3.899804 0.160817-8.040832 2.653475-11.538594l57.733176-81.292815c3.015312-4.261641 7.92022-6.794503 13.227169-6.794503l58.858893 0c31.520063 0 49.853161-0.402042 64.889517-7.236749-74.699333-45.631724-162.786651-72.086062-257.025206-72.086062C427.08881-96.278916 339.443738-70.146211 264.98563-24.956733zM684.958304 514.462505c18.333098-62.236042 34.052925-171.872792-1.809187-201.061013-3.698783-3.015312-5.829603-7.518178-5.829603-12.222065 0-88.97181-73.774637-201.865096-156.715823-201.865096s-156.715823 112.893286-156.715823 201.865096c0 2.211229-0.48245 4.382254-1.366941 6.392462-47.360503 106.098783-7.317157 204.277346-6.915116 205.242246 0.804083 1.9298 1.246329 3.980212 1.246329 6.070828 0 52.707656 0.48245 117.034315 121.899018 117.034315 3.015312 0-2.573066-1.567962 0 0 34.696192 21.187593 85.39364 10.33247 115.747782 10.33247 34.213742 0 62.879309-13.950844 80.649548-39.239262 16.966156-24.202905 20.825756-55.039497 10.211857-82.49894C684.154221 521.257008 683.993404 517.759246 684.958304 514.462505zM807.259364-4.693836c-26.735768 19.539223-55.64256 19.458814-94.399372 19.458814l-50.335611 0-52.948881 74.498312c-2.050412 2.8947-5.02552 4.663683-8.241853 5.708991 61.190734 41.973145 105.455516 125.356576 108.108991 199.251826 51.622144 53.23031 16.845544 192.095485 7.92022 224.138202 12.021044 35.902316 6.312053 75.423007-15.679623 106.701845-23.599843 33.650883-62.678288 52.948881-107.184295 52.948881-35.25905 0-77.232195 20.906164-115.747782-1.849391C341.534354 674.836906 325.211464 584.819788 324.608402 521.860071c-7.116137-18.694935-39.80212-116.029211 7.035728-224.057793 1.326737-74.980762 46.27499-160.615626 108.712053-203.191834-2.8947-1.125717-5.588378-2.814291-7.477974-5.548174L381.29627 14.724774 340.730271 14.724774c-42.053553 0-76.106478-0.201021-105.857558-19.820652-122.622693 87.363644-202.588771 229.163722-202.588771 389.055673 0 264.824814 219.152886 480.278916 488.52077 480.278916 269.367884 0 488.52077-215.454103 488.52077-480.278916C1009.325481 224.309069 929.560424 82.669808 807.259364-4.693836z"  horiz-adv-x="1042" />

    
    <glyph glyph-name="iconfontweitongguo" unicode="&#58978;" d="M512.002558-75.144188c-95.312786 0-182.696995 31.977295-255.261685 84.184331-19.253506 18.178011-31.145347 20.255323-31.145347 39.833217l-0.355087 3.882424c0 23.130813 18.206664 41.813315 40.699957 41.813315 11.636015 0 21.970384-5.104251 29.370935-13.148461 60.667731-45.604664 135.164423-72.845075 216.095663-72.845075 202.662723 0 366.990349 168.81994 366.990349 377.084241 0 208.309326-164.327626 377.177362-366.990349 377.177362-202.683189 0-367.003652-168.867012-367.003652-377.177362 0-57.520041 12.912078-111.815645 35.331693-160.640654 0 0 9.69685-18.721387 18.782785-45.448098l0.37453-3.882424c0-23.130813-18.23634-41.862433-40.705074-41.862433-18.303878 0-33.175587 12.679787-38.311561 29.709649l-0.209778-0.193405c-35.291784 65.747423-55.464219 141.338029-55.464219 221.74636 0 254.143211 200.482057 460.192054 447.794699 460.192054 247.319805 0 447.800839-206.048843 447.800839-460.192054C959.796234 130.891352 759.311107-75.144188 512.002558-75.144188L512.002558-75.144188 512.002558-75.144188zM511.522628-77.280852M763.552711 385.067308c0 22.455431-19.439748 40.662095-43.418882 40.662095L303.864124 425.729403c-23.979134 0-43.418882-18.206664-43.418882-40.662095l0 0c0-22.457478 19.439748-40.663118 43.418882-40.663118l416.269705 0C744.112963 344.405213 763.552711 362.610854 763.552711 385.067308L763.552711 385.067308z"  horiz-adv-x="1024" />

    
    <glyph glyph-name="xuanze" unicode="&#58885;" d="M798.112 896 225.888 896C101.12 896 0 794.88 0 670.112l0-572.224C0-26.88 101.12-128 225.888-128l572.224 0C922.88-128 1024-26.88 1024 97.888L1024 670.112C1024 794.88 922.88 896 798.112 896zM986.656 118.752c0-115.648-93.76-209.408-209.408-209.408L246.752-90.656c-115.648 0-209.408 93.76-209.408 209.408L37.344 649.248c0 115.648 93.76 209.408 209.408 209.408l530.496 0c115.648 0 209.408-93.76 209.408-209.408L986.656 118.752zM841.056 569.952 788.352 618.976 439.808 248.736 230.72 436.672 182.944 382.848 443.04 149.024 443.936 150.016 444.896 149.12Z"  horiz-adv-x="1024" />

    
    <glyph glyph-name="shenfenrenzheng" unicode="&#59165;" d="M722.906 381.683c-87.489 0-158.413-70.281-158.413-156.987s70.924-156.987 158.413-156.987c87.481 0 158.407 70.281 158.407 156.987 0 86.707-70.924 156.987-158.407 156.987zM720.904 122.798c-8.257-8.079-21.638-8.079-29.893 0l-67.237 65.86c-8.235 8.083-8.235 21.188 0 29.272 8.257 8.079 21.637 8.079 29.873 0l52.297-51.222 100.879 98.778c8.235 8.083 21.637 8.083 29.873 0 8.257-8.083 8.257-21.176 0-29.259l-115.793-113.428zM763.408 571.335h-214.407c-8.73 0-11.585-7.075-11.585-15.801 0-8.728 2.855-15.802 11.585-15.802h214.407c8.726 0 15.8 7.073 15.8 15.802 0 8.727-7.073 15.801-15.8 15.801zM763.408 492.752h-214.407c-8.73 0-11.585-7.073-11.585-15.8s2.855-15.803 11.585-15.803h214.407c8.726 0 15.8 7.075 15.8 15.803 0 8.726-7.073 15.8-15.8 15.8zM625.693 398.368c0 8.726-7.073 15.8-15.803 15.8h-56.673c-8.726 0-15.8-7.073-15.8-15.8 0-8.73 7.073-15.803 15.8-15.803h56.673c8.729 0 15.803 7.076 15.803 15.803zM207.152 197.59c-20.495 2.138-36.605 19.624-36.605 40.688v395.455c0 22.498 18.377 39.199 40.844 39.199h597.867c22.465 0 42.559-16.7 42.559-39.199v-245.389c10.069-7.798 19.387-16.496 27.859-25.959v285.329c0 30.178-26.948 52.576-57.081 52.576h-625.122c-30.132 0-54.782-22.398-54.782-52.576v-422.904c0-28.258 21.608-51.709 49.097-54.58h328.924c-2.431 8.899-4.293 18.029-5.52 27.36h-308.037zM473.856 574.879c10.142-0.048 18.414-8.317 18.486-18.482l1.574-220.181c0.099-10.132-8.114-18.288-18.225-18.214l-220.177 1.574c-10.134 0.041-18.435 8.343-18.476 18.473l-1.574 220.184c-0.072 10.11 8.106 18.293 18.214 18.219l220.178-1.574zM455.81 377.448c-0.058 0.635-0.021 1.273-0.008 1.912 0.109 4.355-1.383 8.244-4.087 11.806-4.389 5.782-10.31 10.048-16.653 13.894-11.997 7.27-25.1 12.494-38.714 16.665-5.424 1.66-12.288 5.010-12.384 9.991-0.086 4.45 0.601 8.528 3.518 12.148 7.283 9.037 11.991 19.664 14.922 31.313 2.603 10.37 3.24 20.826 1.279 31.387-1.984 10.68-6.545 19.728-14.63 26.186-7.313 5.836-15.262 8.532-23.618 8.532-3.454 0-6.978-0.458-10.553-1.349-13.915-3.459-23.197-12.953-27.7-27.95-3.247-10.804-3.197-21.85-0.972-32.845 2.824-13.986 8.357-21.943 17.151-32.588 0.35-0.422 0.771-0.833 0.968-1.338 3.067-7.912-3.644-20.302-11.841-23.141-6.357-2.204-12.658-4.59-18.805-7.226-9.797-4.211-19.255-8.992-27.502-15.466-5.197-4.072-10.184-8.442-11.848-14.72-0.855-3.222-0.733-6.678-0.797-10.036-0.077-4.338 1.64-8.198 5.155-11.111 2.513-2.085 8.32-5.447 8.32-5.447l28.757 0.050h126.949c0.001-0.001 13.958 9.987 13.094 19.333z"  horiz-adv-x="1024" />

    
    <glyph glyph-name="zhifubao" unicode="&#58937;" d="M655.129326 282.302807C726.316645 409.425066 751.741711 531.459446 751.741711 531.459446l-12.710486 0 0 0L629.7104 531.459446l-114.405633 0L515.304767 617.896074l279.657304 0 0 38.139645L515.304767 656.03572 515.304767 790.780587 388.182508 790.780587l0-134.744867-254.240425 0 0-38.139645 254.240425 0 0-88.98159L169.535743 528.914484l0-38.134529 439.833377 0c0-7.627724 0-7.627724-7.628748-12.707416 0-45.769416-33.045627-109.327988-58.471716-160.178119-325.425697 127.124306-419.497213 50.847062-444.920232 38.139645-216.10078-152.546302-12.709463-343.225085 20.342304-338.142324 228.814336-50.843992 376.268666 45.769416 477.966882 165.257811 7.627724-7.628748 12.71151-7.628748 20.338211-7.628748 71.185272-38.134529 406.782633-198.301392 406.782633-198.301392l0 190.672644C972.930369 172.983006 787.335371 236.5426 655.129326 282.302807L655.129326 282.302807zM489.878678 223.833137C329.709769 20.438751 139.028938 83.997322 108.523157 96.708831c-76.273151 20.342304-101.698217 160.170956-7.627724 203.39234 160.168909 50.847062 300.001655-7.624654 401.693732-58.474786C494.960417 231.459838 489.878678 223.833137 489.878678 223.833137L489.878678 223.833137z"  horiz-adv-x="1024" />

    
    <glyph glyph-name="chongzhi" unicode="&#58918;" d="M716.027813 26.116053 144.998395 26.116053c-58.871829 0-106.766652 50.492998-106.766652 112.556519L38.231743 629.384733c0 62.032822 47.894823 112.500237 106.766652 112.500237l734.008326 0c58.868759 0 106.762559-50.467415 106.762559-112.500237l0-331.641259-17.687848 18.814508c-17.827017 18.959817-38.866193 33.881668-62.534242 44.351114-24.508183 10.838859-50.635237 16.335037-77.656661 16.335037-106.108666 0-192.434777-86.326111-192.434777-192.434777 0-27.219945 5.571902-53.524031 16.562211-78.17957 10.615779-23.816428 25.733081-44.939515 44.934398-62.783928L716.027813 26.116053zM144.998395 721.417823c-47.585785 0-86.300528-41.286312-86.300528-92.034113l0-490.711138c0-50.7785 38.714743-92.090395 86.300528-92.090395l520.987698 0c-13.31833 15.553231-24.263613 32.871665-32.661887 51.714825-12.166087 27.29567-18.334577 56.401568-18.334577 86.511329 0 117.39471 95.507214 212.900901 212.900901 212.900901 29.889751 0 58.802244-6.084579 85.935208-18.08489 18.729573-8.283664 35.966143-19.084661 51.478442-32.236192L965.30418 629.384733c0 50.747801-38.712697 92.034113-86.296435 92.034113L144.998395 721.418846zM47.885614 577.027272l928.22775 0 0-122.813117-928.22775 0 0 122.813117ZM827.889507 26.116053c-87.054705 0-157.87875 70.824045-157.87875 157.87875 0 87.053682 70.824045 157.877727 157.87875 157.877727s157.87875-70.824045 157.87875-157.877727C985.768257 96.940099 914.944212 26.116053 827.889507 26.116053zM827.889507 321.40743c-75.769684 0-137.412626-61.641919-137.412626-137.411603s61.642942-137.412626 137.412626-137.412626S965.302133 108.225119 965.302133 183.994804 903.659191 321.40743 827.889507 321.40743zM833.640488 185.00583l-11.501962 0-57.573253 87.044472c-3.118014 4.713348-1.823532 11.062963 2.889817 14.179954 4.712325 3.118014 11.06194 1.824555 14.179954-2.889817l46.25344-69.931722 46.252417 69.931722c3.118014 4.714372 9.466606 6.006807 14.179954 2.889817 4.713348-3.118014 6.007831-9.466606 2.889817-14.179954L833.640488 185.00583zM900.680347 185.00583 755.098667 185.00583c-5.650697 0-10.233062 4.582365-10.233062 10.233062s4.582365 10.233062 10.233062 10.233062l145.58168 0c5.650697 0 10.233062-4.582365 10.233062-10.233062S906.331044 185.00583 900.680347 185.00583zM900.680347 139.325441 755.098667 139.325441c-5.650697 0-10.233062 4.582365-10.233062 10.233062s4.582365 10.233062 10.233062 10.233062l145.58168 0c5.650697 0 10.233062-4.582365 10.233062-10.233062S906.331044 139.325441 900.680347 139.325441zM827.889507 80.061686c-5.650697 0-10.233062 4.582365-10.233062 10.233062L817.656445 195.238892c0 5.650697 4.582365 10.233062 10.233062 10.233062s10.233062-4.582365 10.233062-10.233062l0-104.944144C838.122569 84.644051 833.540204 80.061686 827.889507 80.061686zM414.554644 267.46282 109.168352 267.46282c-5.65172 0-10.233062 4.582365-10.233062 10.233062s4.581342 10.233062 10.233062 10.233062l305.386292 0c5.65172 0 10.233062-4.582365 10.233062-10.233062S420.206364 267.46282 414.554644 267.46282zM512 267.46282l-41.274032 0c-5.65172 0-10.233062 4.582365-10.233062 10.233062s4.581342 10.233062 10.233062 10.233062l41.274032 0c5.65172 0 10.233062-4.582365 10.233062-10.233062S517.65172 267.46282 512 267.46282zM355.454618 177.566394 109.168352 177.566394c-5.65172 0-10.233062 4.582365-10.233062 10.233062s4.581342 10.233062 10.233062 10.233062l246.286266 0c5.65172 0 10.233062-4.582365 10.233062-10.233062S361.106338 177.566394 355.454618 177.566394z"  horiz-adv-x="1024" />

    
    <glyph glyph-name="gegumubiao" unicode="&#58941;" d="M1580.8 838.4 1177.6 793.6 1312 659.2 723.2 70.4 499.2 294.4 499.2 294.4 409.6 390.4 313.6 294.4 0-19.2 89.6-108.8 409.6 204.8 633.6-19.2 633.6-19.2 723.2-108.8 1401.6 569.6 1536 435.2Z"  horiz-adv-x="1600" />

    
    <glyph glyph-name="user" unicode="&#58965;" d="M516.290723 832.663486c-144.404877 0-261.885546-118.361735-261.885546-263.851317 0-49.073672 13.545504-96.982822 39.174208-138.533147 23.887037-38.739303 57.302077-70.611198 96.872305-92.470041-64.48364-17.640776-120.727619-46.548152-167.236885-85.962837-37.254485-31.565926-68.192102-69.728084-91.946109-113.412003C80.730673 45.772742 78.460979-40.557462 78.463026-41.287079c-0.26606-5.869684 1.864464-11.478426 5.995551-15.793708 4.051269-4.225231 9.524934-6.704702 15.506159-6.975878l0.497327 0c11.792581 0 21.455661 9.476839 22.001083 21.654182 0.01228 0.75827 3.235694 79.31851 48.301076 160.747077 57.350173 104.690364 154.783249 168.147628 289.612027 188.603519 9.709129-0.64673 20.194948-0.868787 30.341029-1.086751 5.466502-0.12075 10.629081-0.222057 15.658631-0.396019l9.91379 0c144.404877 0 261.883499 118.356618 261.883499 263.844154C778.174222 714.525855 660.6956 832.663486 516.290723 832.663486zM519.757684 353.293651c-0.280386 0-0.823761 0.11154-1.305739 0.202615-0.712221 0.147356-1.449002 0.296759-2.161223 0.296759l-9.819646-0.002047c-114.445542 4.988618-204.093305 99.658767-204.093305 215.518518 0 118.842689 95.961562 215.521588 213.912951 215.521588s213.912951-96.6789 213.912951-215.521588C730.203674 451.679425 635.785258 354.773352 519.757684 353.293651zM927.919734 82.302727c-9.382695 31.166837-22.906709 60.250222-40.190351 86.433558-27.916816 42.284035-57.637722 64.73435-66.082044 70.601988l-0.376577 0.26299c-3.679809 2.347464-7.847735 3.580548-12.046361 3.580548-7.381108 0-14.193257-3.834328-18.21792-10.252505-6.601348-10.529821-3.692089-23.927969 6.622838-30.491455l0.11154-0.072655c1.12973-0.74599 27.845185-18.956747 53.625338-58.266032 23.450085-35.754319 50.872644-96.954169 48.344055-185.387267-0.538259-11.985986 9.064446-22.201651 21.503756-22.769586l0.49221 0c11.988032 0 21.448498 9.272177 22.004153 21.617343C944.837032 1.796158 939.52198 43.760922 927.919734 82.302727z"  horiz-adv-x="1024" />

    
    <glyph glyph-name="yuqichicangshouyilv-copy" unicode="&#59001;" d="M116.492 621.964h184.148v-418.027h-184.148v418.027zM426.309 462.446h184.15v-258.508h-184.15v258.508zM723.355 779.508h184.15v-575.571h-184.15v575.571zM116.492 94.625h791.013v-106.131h-791.013v106.131z"  horiz-adv-x="1024" />

    
    <glyph glyph-name="jisu" unicode="&#58960;" d="M510.145769 653.094738c-7.832386 0-14.183024-6.343475-14.183024-14.183024l0-311.49543c0-7.839549 6.350638-14.183024 14.183024-14.183024l235.789191 0c7.832386 0 14.183024 6.343475 14.183024 14.183024s-6.350638 14.183024-14.183024 14.183024L524.328793 341.599308 524.328793 638.912737C524.328793 646.751263 517.978155 653.094738 510.145769 653.094738zM544.32215 829.965028c-230.04128 0-417.194774-187.146331-417.194774-417.187611 0-3.919263 3.172249-7.091512 7.091512-7.091512 3.919263 0 7.091512 3.172249 7.091512 7.091512 0 222.216058 180.789553 403.00561 403.01175 403.00561S947.3339 634.992451 947.3339 412.776394c0-222.22936-180.789553-403.018913-403.01175-403.018913-72.312956 0-143.234215 19.376303-205.097168 56.024991-3.37998 1.966795-7.714705 0.858554-9.716292-2.492774-1.994424-3.365654-0.87902-7.714705 2.486634-9.723455 64.050782-37.936007 137.471978-57.991786 212.326826-57.991786 230.04128 0 417.194774 187.160657 417.194774 417.201937S774.36343 829.965028 544.32215 829.965028zM390.780171 272.013463 260.679068 298.603051 348.605629 488.84079 65.535599 211.973018 221.914182 190.791603 118.192889-0.568702Z"  horiz-adv-x="1024" />

    
    <glyph glyph-name="xuanzhong2" unicode="&#59113;" d="M438.857143 76.8 131.657143 384 29.257143 281.6 438.857143-128 1316.571429 749.714286 1214.171429 852.114286Z"  horiz-adv-x="1317" />

    
    <glyph glyph-name="xiaolian" unicode="&#58906;" d="M198.716-96c-74.269 0-134.699 60.293-134.699 134.4s60.43 134.4 134.699 134.4c74.269 0 134.699-60.293 134.699-134.4s-60.43-134.4-134.699-134.4zM198.716 122.942c-46.778 0-84.829-37.927-84.829-84.53s38.051-84.542 84.829-84.542c46.765 0 84.829 37.927 84.829 84.53s-38.051 84.542-84.829 84.542zM820.721-96c-74.282 0-134.711 60.293-134.711 134.4s60.43 134.4 134.711 134.4c74.269 0 134.699-60.293 134.699-134.4s-60.43-134.4-134.699-134.4zM820.721 122.942c-46.778 0-84.842-37.927-84.842-84.53s38.063-84.542 84.842-84.542 84.829 37.927 84.829 84.53-38.051 84.542-84.829 84.542zM515.316 121.334c-163.774 0-177.376 118.654-177.487 119.838-1.346 13.715 8.665 25.908 22.367 27.266 13.565 1.384 25.758-8.528 27.242-22.105 0.461-3.64 11.196-75.117 127.88-75.117 117.182 0 127.518 72.099 127.904 75.167 1.683 13.539 13.814 23.289 27.529 21.868 13.565-1.508 23.402-13.49 22.068-27.067-0.137-1.222-13.739-119.85-177.501-119.85zM768.045 454.355c-12.468 0-23.227 9.338-24.723 22.018-2.855 23.614-17.255 75.341-41.517 75.341-24.087 0-37.004-51.329-39.21-74.755-1.297-13.715-13.278-23.713-27.167-22.492-13.715 1.284-23.776 13.452-22.492 27.155 4.189 44.559 27.616 119.962 88.856 119.962 60.842 0 85.864-75.054 91.05-119.389 1.609-13.677-8.179-26.057-21.868-27.666-0.985-0.125-1.958-0.174-2.93-0.174zM429.614 454.355c-12.468 0-23.227 9.325-24.723 21.993l0 0c-2.855 23.614-17.255 75.353-41.517 75.353-24.075 0-37.004-51.329-39.21-74.755-1.297-13.715-13.452-23.776-27.155-22.492-13.715 1.284-23.788 13.452-22.492 27.155 4.177 44.559 27.603 119.962 88.856 119.962 60.829 0 85.852-75.054 91.038-119.389 1.596-13.677-8.191-26.057-21.868-27.666-0.985-0.112-1.97-0.162-2.93-0.162zM686.009 38.4c0 5.71 0.473 11.296 1.16 16.807-53.411-26.842-113.666-42.053-177.463-42.053-63.784 0-124.04 15.21-177.45 42.053 0.685-5.523 1.16-11.108 1.16-16.807 0-12.654-1.87-24.848-5.124-36.455 55.468-24.76 116.833-38.649 181.428-38.649 64.595 0 125.96 13.889 181.428 38.649-3.266 11.607-5.137 23.813-5.137 36.455zM191.983 172.763c-49.035 65.716-78.097 147.08-78.097 235.101 0 217.645 177.562 394.71 395.831 394.71 218.269 0 395.831-177.064 395.831-394.71 0-88.021-29.062-169.384-78.097-235.101 18.515-0.923 36.007-5.536 51.803-13.191 48.062 70.941 76.151 156.405 76.151 248.291 0 245.137-199.942 444.579-445.702 444.579s-445.689-199.431-445.689-444.567c0-91.885 28.089-177.351 76.151-248.291 15.809 7.642 33.301 12.268 51.815 13.178z"  horiz-adv-x="1024" />

    
    <glyph glyph-name="jisu1" unicode="&#58949;" d="M523.467516-83.381125c-64.539588 0-127.154271 12.294815-186.108564 36.545539-56.935191 23.419329-108.064953 56.943382-151.97018 99.641448-43.905227 42.698066-78.376374 92.422033-102.458156 147.791703-24.934679 57.333483-37.578639 118.228038-37.578639 180.992209 0 62.765194 12.642936 123.658726 37.578639 180.991185 24.081783 55.370694 58.553954 105.094661 102.458156 147.791703 43.905227 42.698066 95.034988 76.222119 151.97018 99.641448 58.953269 24.2497 121.568976 36.545539 186.108564 36.545539 64.539588 0 127.155295-12.295839 186.108563-36.545539 56.935191-23.419329 108.064953-56.943382 151.97018-99.641448 43.904203-42.697042 78.376374-92.422033 102.458157-147.791703 24.935703-57.332459 37.578639-118.225991 37.578639-180.991185 0-62.76417-12.642936-123.658726-37.578639-180.991185-24.080759-55.370694-58.55293-105.094661-102.458157-147.792727-43.904203-42.697042-95.034988-76.222119-151.97018-99.641448-58.954293-24.250724-121.57-36.545539-186.108563-36.545539z m0 903.117027c-248.425296 0-450.534116-196.552194-450.534117-438.147152s202.10882-438.148175 450.534117-438.148175c248.424272 0 450.534116 196.552194 450.534116 438.148175S771.891788 819.735902 523.467516 819.735902zM593.663046 707.805782L471.746972 387.194522h172.920921L471.746972 72.004735l86.460973 262.613276-193.962788-1.535828"  horiz-adv-x="1024" />

    
    <glyph glyph-name="shouye-s" unicode="&#58886;" d="M814.592 368.128c-11.776 0-21.504-9.728-21.504-21.504v-327.168h-171.008v227.328H394.752v-227.328H224.256v327.168c0 11.776-9.728 21.504-21.504 21.504-11.776 0-21.504-9.728-21.504-21.504v-369.664h256V204.8h142.336v-227.328h256v369.664c0.512 11.264-9.216 20.992-20.992 20.992z m134.656 8.704L508.928 788.48l-440.32-410.624c-8.704-8.192-9.216-21.504-1.024-30.208 8.192-8.704 21.504-9.216 30.208-1.024l411.136 383.488 411.136-384.512c4.096-4.096 9.216-5.632 14.336-5.632 5.632 0 11.264 2.048 15.36 6.656 8.192 8.704 7.68 22.016-0.512 30.208z m-284.16 296.96h128v-113.664c0-11.776 9.728-21.504 21.504-21.504 11.776 0 21.504 9.728 21.504 21.504V716.8h-171.008c-11.776 0-21.504-9.728-21.504-21.504 0.512-11.776 9.728-21.504 21.504-21.504zM832.512-16.896s-156.16-1.024-245.76 0c0.512 24.576-2.56 185.344-3.072 223.744-52.736 5.632-85.504-1.024-148.48-1.536-1.536-51.712-2.048-154.624-4.608-222.208-60.928-1.536-206.848 1.024-240.64-0.512-5.632 0-4.608 194.048-7.68 358.4H84.48l424.448 446.464 426.496-448h-102.912v-356.352z"  horiz-adv-x="1024" />

    
    <glyph glyph-name="tixian" unicode="&#58900;" d="M87 650.402c3.003 8.925 4.86 18.457 9.219 26.662 14.953 28.145 39.328 42.567 70.746 45.681 2.059 0.203 4.147 0.143 6.222 0.143 225.537 0.006 451.074 0.013 676.612-0.001 37.072-0.002 69.373-21.948 81.618-56.103 2.631-7.338 4.261-15.465 4.289-23.237 0.298-85.336 0.188-170.674 0.185-256.011 0-1.035 0.029-2.076-0.055-3.107-0.6-7.48-6.235-12.802-13.237-12.529-6.807 0.266-12.176 5.654-12.322 12.91-0.2 9.842-0.055 19.692-0.057 29.539v5.964H112.742v-6.453c0-69.962 0.37-139.927-0.181-209.886-0.222-28.203 20.52-52.127 48.515-57.432 4.213-0.799 8.579-1.111 12.874-1.113 114.325-0.059 228.651-0.039 342.975-0.092 3.07-0.002 6.283-0.213 9.182-1.121 5.897-1.844 8.999-7.602 8.096-13.975-0.779-5.498-5.545-9.939-11.283-10.457-1.202-0.107-2.42-0.043-3.631-0.043-115.363-0.002-230.726-0.025-346.089 0.012-36.872 0.01-68.823 21.793-81.528 55.65-2.038 5.43-3.139 11.211-4.672 16.828V650.402z m822.932-72.097c0.186 1.242 0.462 2.231 0.461 3.218-0.025 20.555 0.029 41.11-0.178 61.664-0.117 11.642-4.385 21.932-11.646 30.914-13.743 17.001-32.032 23.425-53.473 23.416-222.425-0.102-444.851-0.055-667.276-0.111-5.333-0.001-10.743-0.291-15.988-1.195-28.068-4.837-50.2-28.87-49.206-57.812 0.623-18.117 0.109-36.273 0.127-54.412 0.001-1.833 0.157-3.667 0.25-5.683l796.929 0.001zM112.994 446.747h796.972V551.982H112.994v-105.235zM935.894 214.338c3.576-85.008-70.181-170.688-171.379-169.307-92.274 1.26-168.122 77.98-167.04 172.426 1.037 90.447 77.487 166.609 169.62 166.256 103.269-0.397 172.493-87.82 168.799-169.375zM766.31 70.748c80.198-0.002 144.813 64.109 144.813 143.688 0 78.932-64.898 143.711-143.986 143.719-78.134 0.01-142.964-64.387-143.984-141.086-1.073-80.503 64.484-146.573 143.157-146.321zM297.166 256.332c-39.956 0-79.912-0.004-119.868 0.012-2.245 0-4.51-0.008-6.732 0.264-6.071 0.744-10.462 5.43-10.837 11.367-0.422 6.693 3.325 12.012 9.661 13.393 2.172 0.473 4.454 0.617 6.686 0.617 80.776 0.031 161.553 0.033 242.33-0.008 2.398 0 4.873-0.191 7.178-0.801 5.637-1.492 9.35-7.088 8.95-13.012-0.381-5.639-4.677-10.578-10.257-11.467-2.373-0.379-4.826-0.35-7.243-0.35-39.957-0.019-79.912-0.015-119.868-0.015zM751.229 188.686c1.585 1.498 2.97 2.742 4.285 4.057 22.364 22.324 44.734 44.645 67.066 67.002 3.698 3.703 7.706 6.387 13.269 5.219 9.495-1.992 13.51-12.275 7.807-20.08-0.909-1.244-2.036-2.342-3.132-3.438-26.017-26-52.037-51.996-78.067-77.979-8.107-8.094-14.395-8.061-22.55 0.08-15.52 15.494-31.019 31.01-46.562 46.482-3.901 3.883-6.334 8.279-4.861 13.904 2.564 9.787 14.244 12.736 21.775 5.359 12.335-12.08 24.465-24.375 36.691-36.568 1.316-1.31 2.701-2.552 4.279-4.038z"  horiz-adv-x="1024" />

    
    <glyph glyph-name="jinggao2" unicode="&#58905;" d="M847.557 0.443h-671.083c-45.003 0-81.156 17.641-99.21 48.411-18.060 30.767-15.862 70.96 6.051 110.233l338.598 606.81c22.039 39.561 54.815 62.236 89.879 62.236 35.069 0 67.811-22.647 89.913-62.172l338.954-606.937c21.908-39.274 24.173-79.436 6.080-110.199-18.026-30.767-54.208-48.378-99.184-48.378v0zM511.825 764.433c-11.149 0-23.92-11.052-34.272-29.558l-338.598-606.874c-10.609-19.046-13.093-36.155-6.755-46.947 6.342-10.766 22.487-16.947 44.274-16.947h671.083c21.821 0 37.937 6.149 44.274 16.947 6.303 10.765 3.853 27.867-6.785 46.913l-338.949 606.907c-10.323 18.506-23.158 29.558-34.272 29.558v0zM512.015 287.792c-17.578 0-31.846 14.24-31.846 31.851v286.653c0 17.582 14.269 31.851 31.85 31.851 17.582 0 31.851-14.269 31.851-31.851v-286.653c0-17.612-14.269-31.851-31.851-31.851v0zM464.243 176.189c0 12.51 5.147 24.941 13.989 33.787 8.846 8.839 21.278 13.994 33.782 13.994 12.509 0 24.935-5.152 33.781-13.989 8.846-8.846 13.998-21.278 13.998-33.787M559.794 181.664c0-12.51-5.147-24.941-13.994-33.787-8.846-8.841-21.278-13.989-33.782-13.989-12.509 0-24.937 5.152-33.781 13.989-8.844 8.846-13.996 21.278-13.996 33.787z"  horiz-adv-x="1024" />

    
    <glyph glyph-name="jinggao" unicode="&#58917;" d="M509.7472 269.2608c36.864 0 66.816 29.9008 66.816 66.7648V647.68a66.7648 66.7648 0 1 1-133.5808 0v-311.6544c0-36.864 29.9008-66.7648 66.7648-66.7648M512 208.64a77.5168 77.5168 0 1 1 0-155.0848 77.5168 77.5168 0 0 1 0 155.0848M512 896c282.7776 0 512-229.2224 512-512s-229.2224-512-512-512S0 101.2224 0 384 229.2224 896 512 896"  horiz-adv-x="1024" />

    
    <glyph glyph-name="zijinmingxi" unicode="&#58923;" d="M1142.462745 758.211765C1142.462745 834.007843 1081.34902 896 1006.305882 896H258.760784C183.843137 896 122.729412 834.007843 122.729412 758.211765v-730.478432c0-75.796078 61.113725-137.788235 136.156863-137.788235H562.196078c11.294118 0 20.580392 9.160784 20.580393 20.580392 0 11.294118-9.160784 20.580392-20.580393 20.580392H258.760784c-52.203922 0-94.996078 43.545098-94.996078 96.627451V758.211765c0 53.207843 42.917647 96.627451 94.996078 96.627451h747.545098c52.203922 0 94.996078-43.419608 94.996079-96.627451 0 0-0.501961-284.360784 0-298.541177 0.501961-14.305882 9.160784-20.580392 20.580392-20.580392 11.294118 0 20.580392 9.160784 20.580392 20.580392V758.211765z m-768.12549-123.858824h462.180392c11.419608 0 20.580392 9.160784 20.580392 20.580392 0 11.419608-9.160784 20.580392-20.580392 20.580392H374.337255c-11.294118 0-20.580392-9.160784-20.580392-20.580392 0-11.419608 9.160784-20.580392 20.580392-20.580392z m0-165.396078h190.243137c11.419608 0 20.580392 9.160784 20.580392 20.580392 0 11.294118-9.160784 20.580392-20.580392 20.580392H374.337255c-11.294118 0-20.580392-9.160784-20.580392-20.580392 0-11.419608 9.160784-20.580392 20.580392-20.580392z m0-179.2h68.015686c11.419608 0 20.580392 9.160784 20.580392 20.580392 0 11.294118-9.160784 20.580392-20.580392 20.580392h-68.015686c-11.294118 0-20.580392-9.160784-20.580392-20.580392 0-11.419608 9.160784-20.580392 20.580392-20.580392z m0-179.2h68.015686c11.419608 0 20.580392 9.160784 20.580392 20.580392 0 11.419608-9.160784 20.580392-20.580392 20.580392h-68.015686c-11.294118 0-20.580392-9.160784-20.580392-20.580392 0-11.419608 9.160784-20.580392 20.580392-20.580392z m0 0M573.866667 180.454902c0 145.945098 118.337255 264.407843 264.407843 264.407843s264.407843-118.337255 264.407843-264.407843S984.345098-83.952941 838.27451-83.952941s-264.407843 118.462745-264.407843 264.407843z m-44.047059 0c0-170.290196 138.039216-308.454902 308.454902-308.454902 170.290196 0 308.454902 138.039216 308.454902 308.454902 0 170.290196-138.039216 308.454902-308.454902 308.454902s-308.454902-138.039216-308.454902-308.454902z m0 0M860.235294 179.827451h80.815686c11.419608 0 20.580392 9.160784 20.580393 20.580392 0 11.419608-9.160784 20.580392-20.580393 20.580392h-74.039215l88.847059 88.972549c8.031373 8.031373 8.031373 21.082353 0 29.113726-8.031373 8.031373-21.082353 8.031373-29.113726 0l-103.780392-103.780392H852.078431l-102.149019 102.77647c-8.031373 8.031373-21.082353 8.156863-29.113726 0.12549-8.031373-8.031373-8.156863-21.082353-0.12549-29.113725l87.341177-87.968628h-71.152942c-11.419608 0-20.580392-9.160784-20.580392-20.580392 0-11.294118 9.160784-20.580392 20.580392-20.580392h82.070589v-40.533333H735.372549c-11.294118 0-20.580392-9.160784-20.580392-20.580392 0-11.294118 9.160784-20.580392 20.580392-20.580392h83.701961v-82.070589c0-11.294118 9.160784-20.580392 20.580392-20.580392 11.419608 0 20.580392 9.160784 20.580392 20.580392v82.070589h79.184314c11.419608 0 20.580392 9.160784 20.580392 20.580392 0 11.419608-9.160784 20.580392-20.580392 20.580392h-79.184314v40.407843z m0 0"  horiz-adv-x="1204" />

    
    <glyph glyph-name="yinhangqia" unicode="&#58968;" d="M865.771 691.048H159.224c-84.83 0-153.844-69.014-153.844-153.844V137.06c0-84.83 69.014-153.844 153.844-153.844H865.77c84.83 0 153.844 69.014 153.844 153.844V537.204c0 84.83-69.013 153.844-153.843 153.844z m-706.547-40H865.77c62.773 0 113.844-51.07 113.844-113.844v-13.8H45.38v13.8c0 62.774 51.07 113.844 113.844 113.844z m706.547-627.832H159.224c-62.774 0-113.844 51.07-113.844 113.844V483.403h934.234V137.06c0-62.774-51.07-113.844-113.843-113.844zM612.112 374.413H163.769c-11.046 0-20-8.954-20-20s8.954-20 20-20h448.343c11.046 0 20 8.954 20 20s-8.954 20-20 20zM458.483 194.919H163.809c-11.046 0-20-8.954-20-20s8.954-20 20-20h294.674c11.046 0 20 8.954 20 20s-8.954 20-20 20z"  horiz-adv-x="1024" />

    
    <glyph glyph-name="anquan" unicode="&#58961;" d="M512 577.920618l-164.832116-58.767452v-170.407088c0-101.217263 164.832116-158.665673 164.832116-158.665673s164.832116 57.449433 164.832116 158.665673V519.153166l-164.832116 58.767452z m78.485539-167.385265l-73.678046-73.678046 0.078794-0.078795-14.993482-14.993482c-6.02932-6.02932-15.804964-6.02932-21.834285 0l-46.545082 46.545082c-7.154957 7.154957-7.154957 18.755156 0 25.910113l0.001023 0.001023c7.154957 7.154957 18.755156 7.154957 25.910113 0l21.772886-21.771862c5.357008-5.357008 14.043854-5.357008 19.400862 0l63.978127 63.977103c7.154957 7.154957 18.755156 7.154957 25.910113 0 7.153934-7.15598 7.153934-18.756179-0.001023-25.911136zM138.237411 181.829488C53.04103 341.364971 77.736479 541.685345 201.563692 673.88832 311.815725 791.599232 483.09467 837.249945 637.33352 789.756257c151.129023-46.536896 265.85188-177.696098 293.064662-333.255013 27.719318-158.455895-39.857776-323.80478-170.609703-417.461857-163.462932-117.088742-390.82008-101.638865-538.183335 34.855856-11.232832 10.403954-28.115338-6.398734-16.841574-16.841573 138.341788-128.138402 345.792561-158.315702 513.726318-71.268161 151.20577 78.376045 246.580978 240.845347 241.652735 411.006842-4.882194 168.605046-107.573017 324.673567-261.239839 394.795624-156.672272 71.493288-344.07136 46.0058-475.948923-64.656578C83.705424 610.084155 28.431539 413.79663 86.515423 241.326557c8.315386-24.692379 18.888186-48.545646 31.156603-71.517847 7.222495-13.526061 27.789926-1.508353 20.565385 12.020778z"  horiz-adv-x="1024" />

    
    <glyph glyph-name="zhaopian" unicode="&#58983;" d="M512 607.616a239.36 239.36 0 0 1-240.768-240.768A239.296 239.296 0 0 1 512 126.016a239.296 239.296 0 0 1 240.768 240.832A239.36 239.36 0 0 1 512 607.616z m0-430.144c-103.168 0-189.184 86.08-189.184 189.312 0 103.168 86.016 189.184 189.184 189.184 103.104 0 189.248-86.016 189.248-189.184 0-103.232-86.144-189.312-189.248-189.312zM810.176 486.144a32.064 32.064 0 0 1 64 0 32 32 0 0 1-64 0zM890.368 676.352h-103.232l-24 72.256c-6.848 17.216-27.52 30.912-44.736 30.912h-412.8a49.088 49.088 0 0 1-44.736-30.912L236.8 676.352H133.568c-58.496 0-103.168-44.736-103.168-103.168v-481.536c0-58.496 48.128-103.104 103.168-103.104h756.8c58.496 0 103.232 44.608 103.232 103.104V573.184c0 58.496-44.736 103.168-103.232 103.168z m51.648-584.704a52.992 52.992 0 0 0-51.648-51.712H133.568a52.928 52.928 0 0 0-51.584 51.712V573.184c0 27.52 24.064 51.584 51.584 51.584H274.624l10.368 34.432 24.064 68.8h405.952l24-68.8 10.368-34.432h140.992c27.52 0 51.648-24.064 51.648-51.584v-481.536z"  horiz-adv-x="1024" />

    
    <glyph glyph-name="weitongguo" unicode="&#58896;" d="M512 867.555556C245.361778 867.555556 28.444444 650.638222 28.444444 384c0-266.638222 216.917333-483.555556 483.555556-483.555556 266.638222 0 483.555556 216.917333 483.555556 483.555556C995.555556 650.638222 778.638222 867.555556 512 867.555556z m0-898.048c-228.522667 0-414.492444 185.969778-414.492444 414.492444 0 228.522667 185.969778 414.492444 414.492444 414.492444 228.522667 0 414.492444-185.969778 414.492444-414.492444 0-228.522667-185.969778-414.492444-414.492444-414.492444z m149.902222 609.848888L515.413333 432.924444 368.810667 579.413333l-48.810667-48.867555L466.488889 384l-146.545778-146.488889 48.810667-48.867555L515.413333 335.189333l146.545778-146.545777 48.867556 48.867555L564.224 384l146.545778 146.545778-48.867556 48.867555z"  horiz-adv-x="1024" />

    
    <glyph glyph-name="jinggao3" unicode="&#58938;" d="M511.6 831.8c-247.2 0-447.6-200.4-447.6-447.6s200.4-447.5 447.6-447.5c247.2 0 447.6 200.4 447.6 447.6-0.1 247.1-200.5 447.5-447.6 447.5M511.6-7.3c-216.2 0-391.5 175.3-391.5 391.5s175.3 391.5 391.5 391.5 391.5-175.3 391.5-391.5-175.3-391.5-391.5-391.5M458.6 125.5v124.4h113.8v-124.4h-113.8M458.6 288.7v335.6h113.8v-335.6h-113.8M458.6 288.7z"  horiz-adv-x="1024" />

    
    <glyph glyph-name="xuanze1" unicode="&#59199;" d="M872.106667 844.8H151.893333c-47.786667 0-85.333333-37.546667-85.333333-85.333333v-657.066667c0-47.786667 37.546667-85.333333 85.333333-85.333333h720.213334c47.786667 0 85.333333 37.546667 85.333333 85.333333V759.466667c0 46.08-39.253333 85.333333-85.333333 85.333333z m51.2-742.4c0-29.013333-22.186667-51.2-51.2-51.2H151.893333c-29.013333 0-51.2 22.186667-51.2 51.2V759.466667c0 29.013333 22.186667 51.2 51.2 51.2h720.213334c29.013333 0 51.2-22.186667 51.2-51.2v-657.066667zM793.6 626.346667L431.786667 271.36 230.4 471.04c-6.826667 6.826667-17.066667 6.826667-23.893333 0s-6.826667-17.066667 0-23.893333l211.626666-211.626667c3.413333-3.413333 8.533333-5.12 11.946667-5.12s8.533333 1.706667 11.946667 5.12c0 0 1.706667 1.706667 1.706666 3.413333l372.053334 365.226667c6.826667 6.826667 6.826667 17.066667 0 23.893333-5.12 5.12-15.36 5.12-22.186667-1.706666z"  horiz-adv-x="1024" />

    
    <glyph glyph-name="geguxiangqing" unicode="&#58939;" d="M847.83 549.934l-80.91 80.96L639.591 513.25v-432.01h237.621V659.365zM423.875 400.732l-72.85 46.863v-366.358h237.647V466.254l-61.334-56.52c-15.62-14.497-36.164-22.45-57.516-22.45-16.325 0-32.079 4.658-45.947 13.448zM300.106 480.332l-60.131 38.648L62.408 364.49v-283.252h237.698zM62.408 22.308h814.805v-84.83H62.408v84.83zM118.77 472.01l116.653 102.024 216.032-139.023c5.652-3.533 11.983-5.339 18.368-5.339 8.27 0 16.539 3.036 23.027 9l275.537 254.394 53.12-53.17 51.44 191.984-191.957-51.468 39.3-39.355-254.206-234.662-215.485 138.579c-12.769 8.085-29.359 6.96-40.793-3.036L74 523.114c-14.054-12.323-15.516-33.78-3.114-47.912 12.324-14.102 33.702-15.489 47.884-3.193z"  horiz-adv-x="1024" />

    
    <glyph glyph-name="zengzhi" unicode="&#58943;" d="M593.353788 414.623624l162.852141 150.395482 15.119059-16.203294L608.4608 398.456471zM824.9344 485.628988l-147.576471 134.204236 190.572424 60.078682zM421.345882 531.829459l192.415624-110.543812-11.107388-19.142776-192.415624 110.543811zM151.046024 278.190682l261.842823 260.565836 15.661177-15.661177-261.794636-260.541741z"  horiz-adv-x="1024" />

    
    <glyph glyph-name="shenfenzhengzhengjian" unicode="&#59131;" d="M901.98948652 682.17665761H134.42329387c-36.25942775 0-64.66234574-19.35155776-64.66234574-44.05475481v-537.6220395c0-24.6995978 28.40291799-44.05115556 64.66234574-44.05115556h767.56979188c36.25582852 0 64.65874651 19.35155776 64.65874651 44.05115556V638.1219028c-0.00359923 24.70319703-28.40291799 44.0547548-64.66234574 44.05475481z m43.06504367-581.67679431c0-10.62050299-17.68524332-22.45745186-43.06504367-22.45745186H134.42329387c-25.37979947 0-43.06864204 11.83694887-43.06864202 22.45745186V638.1219028c0 10.62410222 17.68884256 22.46105109 43.06864202 22.46105111h767.56979188c25.37979947 0 43.0650428-11.83694887 43.06504281-22.46105111v-537.6220395zM162.77942607 491.00040109h377.56231005v-21.5937037H162.77942607zM162.77942607 352.66393668h377.56231005v-21.59370371H162.77942607zM162.77942607 214.33107238000002h377.56231005v-21.5937037H162.77942607zM779.64316057 360.45566534c30.00805054 17.08781725 50.30613202 49.34881057 50.30613202 86.28484076 0 54.7256428-44.5226178 99.24466223-99.24466224 99.24466225s-99.24466223-44.5226178-99.24466221-99.24466225c0-36.93243095 20.29808147-69.19702353 50.3097304-86.28484076-60.8906452-22.04717148-104.88421813-84.01030426-104.88421816-156.92504405v-10.79685186h296.84504648l10.79685185 0.10436929v10.79685185c0 72.83196336-43.9971713 134.77710167-104.88421814 156.82067477z m-126.59308797 86.28484076c0 42.81671522 34.83424332 77.65095853 77.65095851 77.65095855s77.65095853-34.83424332 77.65095853-77.65095855c0-42.81311683-34.83424332-77.64735929-77.65095853-77.64735927s-77.65095853 34.83064409-77.65095851 77.64735927z m-54.21099315-232.40943372c5.04572905 74.34712185 62.2618454 133.16837075 131.8655509 133.16837075 69.60730389 0 126.81982187-58.82124889 131.8691493-133.16837075h-263.7347002z"  horiz-adv-x="1038" />

    
    <glyph glyph-name="fuzhi" unicode="&#59118;" d="M677.322 663.837H174.239c-61.74 0-111.796-50.057-111.796-111.796v-503.083c0-61.739 50.057-111.796 111.796-111.796h503.083c61.739 0 111.796 50.057 111.796 111.796V552.041c0 61.74-50.057 111.796-111.796 111.796z m55.898-614.879c0-30.842-25.056-55.898-55.898-55.898H174.239c-30.815 0-55.898 25.056-55.898 55.898V552.041c0 30.843 25.083 55.898 55.898 55.898h503.083c30.842 0 55.898-25.055 55.898-55.898v-503.083zM230.137 440.245h391.287v55.898H230.137v-55.898zM230.137 328.45h391.287v55.898H230.137v-55.898zM230.137 216.653h391.287V272.55H230.137v-55.898zM230.137 104.856h223.592v55.898H230.137v-55.898zM845.016 831.532H341.933c-61.739 0-111.796-50.057-111.796-111.796h55.898c0 30.842 25.083 55.898 55.898 55.898h503.083c30.843 0 55.898-25.056 55.898-55.898v-503.083c0-30.843-25.055-55.899-55.898-55.899v-55.898c61.74 0 111.796 50.057 111.796 111.797V719.736c0 61.739-50.057 111.796-111.796 111.796z"  horiz-adv-x="1024" />

    
    <glyph glyph-name="gerenzhongxin-xuanzhong" unicode="&#58928;" d="M952.7-15.8s-25.5-44.8-85.1-44.8H151.1c-33.1 0-61.6 18.1-77.1 44.8 0 0-12.4 12.8-12.4 44.8v22.4h1.5c12 135.6 131.2 249 294.6 293.3-70.6 48.4-117 129.6-117 221.7C240.7 714.7 361 835 509.3 835S778 714.7 778 566.3c0-92.1-46.4-173.3-117-221.7C824.4 300.4 943.7 187 955.6 51.4h1.5V29c0-15.3-1.8-30.1-4.4-44.8z"  horiz-adv-x="1024" />

    
    <glyph glyph-name="rong" unicode="&#58929;" d="M512.471 831.951C265.792 831.951 65.82 631.978 65.82 385.3S265.793-61.353 512.47-61.353c246.68 0 446.653 199.974 446.653 446.653S759.15 831.95 512.47 831.95z m0-843.421c-219.13 0-396.768 177.64-396.768 396.769s177.638 396.77 396.768 396.77 396.769-177.64 396.769-396.77S731.6-11.47 512.47-11.47zM280.629 632.256h243.335v-31.978H280.629v31.978z m36.975-464.684h-32.978V423.398h237.34V215.04c0-31.311-16.49-46.968-49.467-46.968h-38.474a244.905 244.905 0 0 1-7.495 34.476c15.989-1.331 28.98-1.998 38.974-1.998 15.653 0 23.483 7.163 23.483 21.485V392.42H317.604v-224.847z m-12.491 398.23h196.866v-120.419h-32.978v12.99H338.09v-12.99h-32.977V565.802z m21.485-253.33h76.947c18.988 34.31 31.312 58.126 36.976 71.452l29.48-13.99c-13.66-22.322-25.818-41.472-36.476-57.461h45.47v-29.979h-60.46v-103.93h-30.978v103.93H326.6v29.979z m8.994 54.464l23.984 14.99c11.992-15.99 22.817-33.146 32.478-51.465l-25.983-15.989a900.463 900.463 0 0 1-30.48 52.464z m133.41 168.886H338.09v-47.468H469v47.468z m221.35-223.35l33.477 9.494c14.99-50.966 27.646-98.933 37.974-143.902l-34.977-8.994a794.07 794.07 0 0 1-6.496 26.981c-63.293-6.995-122.752-13.822-178.378-20.486l-7.495 41.471a7127.636 7127.636 0 0 1 92.437 6.496v134.91h-41.471v-16.489h-36.476v220.35h77.947v89.44h34.977v-89.44h75.448v-203.861h-75.448v-131.91a2898.974 2898.974 0 0 0 49.966 3.497c-6.332 26.646-13.491 54.128-21.485 82.444z m-104.93 78.948h41.472V529.326h-41.471V391.42z m117.92 0V529.326h-41.471v-137.907h41.471z"  horiz-adv-x="1024" />

    
    <glyph glyph-name="shouye" unicode="&#58883;" d="M978.221 376.167l-469.737 439.203-469.737-437.913c-9.189-8.567-9.702-22.975-1.114-32.155 8.579-9.173 23.004-9.692 32.187-1.105l438.629 408.894 438.649-410.139c4.401-4.112 9.987-6.144 15.563-6.144 6.070 0 12.143 2.411 16.623 7.209 8.596 9.173 8.123 23.568-1.065 32.149v0zM978.221 376.167zM834.88 367.146c-12.573 0-22.772-10.193-22.772-22.75v-348.839h-182.185v242.67h-242.91v-242.67h-182.178v348.839c0 12.557-10.189 22.75-22.771 22.75-12.59 0-22.777-10.193-22.777-22.75v-394.338h273.275v242.669h151.819v-242.669h273.268v394.338c0.001 12.557-10.201 22.75-22.768 22.75v0zM834.88 367.146zM675.472 693.232h136.635v-121.332c0-12.576 10.201-22.755 22.772-22.755 12.569 0 22.769 10.179 22.769 22.755v166.831h-182.177c-12.576 0-22.777-10.174-22.777-22.75-0.001-12.572 10.201-22.75 22.777-22.75v0zM675.472 693.232z"  horiz-adv-x="1024" />

    
    <glyph glyph-name="shenhezhong" unicode="&#58934;" d="M681.333333 628.666667c80.533333 0 152-38.933333 196.4-99.066667l31.2-8.4c-46.533333 77.066667-131.066667 128.666667-227.6 128.666667-46.666667 0-90.533333-12-128.666666-33.2l31.066666-8.266667c30 12.933333 62.933333 20.266667 97.6 20.266667m160.533334 13.733333l17.066666-13.866667 5.2 20.666667 19.066667 11.2-19.066667 11.2-5.2 20.666667-17.066666-13.866667-22.4 1.6 8.533333-19.733333-8.533333-19.733334 22.4 1.866667m-296 46.4l-17.6 12.266667-3.866667-21.6-18-13.333334 19.333333-9.333333 6.4-20.533333 15.733334 15.866666 22 0.666667-9.6 19.066667 7.066666 20.933333-21.466666-4M710.266667 718.666667l-13.066667 16.933333-10.266667-19.466667-21.2-7.333333 15.6-14.8-0.133333-21.466667 19.866667 10.266667 21.066666-6-3.333333 21.066667 13.2 17.733333-21.733333 3.066667M948 585.2l-18.4 12.8-2.666667-21.333333-17.333333-12.666667 20.133333-9.866667 7.733334-20.533333 15.066666 15.2H974.666667l-10.8 19.333333 6 20.533334-21.866667-3.466667m239.2-160.533333L263.466667 672.133333c-22.666667 6.133333-46-7.333333-52-30l-66-246.266666c-6.133333-22.666667 7.333333-46 30-52l923.733333-247.466667c22.666667-6.133333 46 7.333333 52 30L1217.333333 372.666667c6 22.666667-7.466667 46-30.133333 52m6.8-56.8l-60.533333-225.733334c-4.533333-17.066667-22-27.066667-39.066667-22.533333L191.333333 361.6c-17.066667 4.533333-27.066667 22-22.533333 39.066667L229.333333 626.533333c4.533333 17.066667 22 27.066667 39.066667 22.533334l903.2-242c16.933333-4.666667 26.933333-22.133333 22.4-39.2M681.333333 766.8c177.066667 0 326-120.266667 369.6-283.6l23.466667-6.266667C1032.533333 655.2 872.533333 788 681.333333 788c-115.866667 0-220.4-48.8-294-126.933333l23.466667-6.266667c69.333333 69.066667 164.933333 112 270.533333 112m97.6-606.666667c-29.866667-13.066667-62.8-20.266667-97.466666-20.266666-80.533333 0-152 38.933333-196.4 99.066666l-31.2 8.4c46.533333-77.066667 131.066667-128.666667 227.6-128.666666 46.666667 0 90.533333 12 128.666666 33.2l-31.2 8.266666m-228-44.133333l-16.933333 13.733333-5.2-20.666666-18.933333-11.066667 18.933333-11.066667 5.2-20.666666 16.933333 13.733333 22.133334-1.6-8.533334 19.6 8.533334 19.6-22.133334-1.6m130.4-65.466667l12.933334-16.933333 10.133333 19.333333 21.066667 7.333334-15.466667 14.666666 0.133333 21.466667-19.733333-10.266667L669.333333 92l3.333334-21.066667-13.066667-17.733333 21.733333-2.666667M412.666667 184.133333l17.333333-14 4.133333 21.066667 18.133334 11.333333-19.2 11.333334-6.133334 21.066666-16-14-21.866666 1.6 9.333333-20-7.333333-20 21.6 1.6M681.333333 1.733333c-177.066667 0-326 120.266667-369.6 283.6l-23.466666 6.266667C330.133333 113.2 490.266667-19.6 681.333333-19.6c115.866667 0 220.4 48.8 294 126.933333l-23.466666 6.266667C882.666667 44.533333 787.066667 1.733333 681.333333 1.733333m153.733334 78l17.466666-12.266666 3.733334 21.6 17.866666 13.333333-19.2 9.333333-6.4 20.4-15.6-15.866666-21.733333-0.666667 9.6-19.066667-7.066667-20.933333 21.333334 4.133333m0 0zM521.733333 459.866667l-28.8-110.266667-31.066666 8.133333 2.4 9.466667-34.8 9.066667-11.6-44.266667-31.066667 8.133333 11.6 44.266667-32.933333 8.666667-3.733334-14.133334-30.133333 7.866667 30.133333 114.933333 63.066667-16.533333 4.933333 18.8 3.733334-0.933333c8-2.8 14.8-4.933333 20.533333-6.4 5.466667-2.133333 8.4-3.6 8.933333-4.4 0.266667-1.466667-0.533333-3.6-2.666666-6.4-1.333333-2.4-2.133333-4.133333-2.4-5.466667l-0.933334-3.733333 64.8-16.8z m-168.266666 99.466666l86.666666-22.666666c0.133333 10.666667-0.4 17.6-1.6 20.533333 0.133333 0.666667 0.266667 1.2 0.533334 1.866667 13.466667-2.266667 25.866667-4.8 37.2-7.733334-1.6-13.733333-2.266667-21.6-2.133334-23.6l82-21.466666-12.533333-48-32 8.4 5.733333 21.733333-140.4 36.666667-5.466666-20.666667-30.133334 7.866667 12.133334 47.066666z m21.066666-127.333333l-4-15.066667 34.8-9.066666 4 15.066666-34.8 9.066667z m6.8 22.4l33.866667-8.933333 4 15.066666-33.866667 8.933334-4-15.066667z m58.133334-39.333333l-4-15.066667 34.8-9.066667 4 15.066667-34.8 9.066667z m9.866666 37.6l-4-15.066667 33.866667-8.933333 4 15.066666-33.866667 8.933334zM550.4 376.933333c20.533333 19.466667 37.2 40.933333 50.133333 64.4l-26.4 6.933334 6.666667 25.466666 29.2-7.6 12.533333 48 3.733334-0.933333c12.533333-3.333333 19.333333-5.466667 20.533333-6.4 2.533333-0.666667 3.866667-1.733333 4.266667-3.066667-0.133333-0.666667-0.8-1.733333-1.866667-3.466666-1.466667-2.933333-2.8-6.666667-3.866667-11.066667l-7.866666-30.133333 23.6-6.133334 4.4 16.933334 54.666666-14.266667c0 10.133333-0.133333 19.866667-0.4 29.333333l34.933334-5.066666c-0.666667-7.866667-1.866667-18.666667-3.466667-32.266667l50.933333-13.333333-6.4-24.533334-63.066666 16.533334c-5.2-4.666667-13.066667-11.333333-23.333334-20-6-5.2-10.4-8.666667-12.933333-10.666667 9.466667-2.4 16.8-3.733333 22.133333-3.733333 5.733333 3.866667 13.466667 10.533333 23.333334 20 1.6 0.933333 2.8 1.866667 3.866666 3.066666 17.333333-13.2 25.866667-20.266667 25.733334-20.8-0.8-0.533333-1.733333-1.2-2.666667-2.4-13.466667-10.533333-23.066667-17.733333-28.8-21.6-33.2-24.266667-66.8-40.933333-100.666667-50.133333-4 7.733333-9.866667 16-17.733333 24.8 24.133333 5.066667 49.2 14.933333 75.2 29.6-22 3.066667-36.133333 4.4-42.266667 4-1.333333 2.4-0.533333 11.866667 2.4 28.533333-0.666667 0.133333 2.4 0.4 9.2 0.666667 5.066667 1.333333 9.066667 4 12.133334 7.866667 6.4 6.4 12.8 13.066667 19.333333 20.133333l-37.733333 9.866667-4.666667-17.866667-24.533333 6.4-6.133334-23.6 16.133334 3.866667c2.933333-9.466667 6.8-23.866667 11.866666-43.333334l-26-7.333333c-0.533333 0.8-1.066667 2.266667-1.866666 4.533333-0.933333 4.266667-2.8 11.066667-5.733334 20.666667l-26.133333-99.866667-27.333333 7.2 21.466666 82c-8.933333-11.066667-16-18.666667-21.066666-22.666666-2.666667 5.333333-7.733333 12.666667-15.466667 21.466666z m57.733333-71.466666c58.133333 4.266667 104.933333 25.2 140.266667 62.933333 15.866667-16.266667 24-25.066667 24.266667-26.533333-0.133333-0.666667-2.266667-2.133333-6.133334-4.4-2.533333-2-6.266667-4.8-11.2-8.133334-3.333333-2.533333-7.866667-5.6-13.6-9.6-5.733333-3.866667-9.866667-6.8-12.4-8.8 4.933333-9.333333 15.466667-24.133333 31.6-44.533333-11.2-4.4-21.733333-10.133333-31.6-16.933333-0.933333 1.6-3.2 5.866667-6.666666 12.8-6.8 12.533333-13.466667 24-20.133334 34.533333-24.4-8.4-49.866667-14.8-76.533333-19.2-5.066667 11.333333-10.933333 20.666667-17.866667 27.866667zM805.6 298.133333l28.8 110.266667 77.2-20.266667 12.133333 46.133334c18.266667-4.8 28.8-7.866667 31.733334-9.333334l6.533333-1.733333c-0.266667-1.2-0.933333-2.4-1.866667-3.466667-3.2-4.533333-5.733333-10.266667-7.466666-17.2l-6.133334-23.6 82-21.466666-28.133333-107.466667-34.8 9.066667 3.733333 14.133333-47.066666 12.266667L901.333333 205.333333l-33.866666 8.933334 20.933333 80.133333-46.133333 12.133333-4.4-16.933333-32.266667 8.533333z m54 75.466667l-10.8-41.466667 46.133333-12.133333 10.8 41.466667-46.133333 12.133333z m116.266667-74.8l10.8 41.466667-47.066667 12.266666-10.8-41.466666 47.066667-12.266667z"  horiz-adv-x="1365" />

    
    <glyph glyph-name="kulian" unicode="&#58920;" d="M514.4576 843.776a462.848 462.848 0 0 0 371.456-187.392c60.2112-80.3328 90.368-174.0288 90.368-274.432 0-254.3104-207.5136-461.824-461.824-461.824-254.3616 0-461.824 207.5136-461.824 461.824 0 254.3616 207.4624 461.824 461.824 461.824z m-3.2256 51.2C230.5024 894.976 1.4336 665.9072 1.4336 385.1776c0-280.7296 229.0688-513.0752 509.7984-513.0752 280.7296 0 509.8496 229.12 509.8496 509.8496 0 112.896-35.4816 219.392-100.0448 303.3088C830.72 814.2848 679.0144 894.976 511.232 894.976zM301.5168 530.3808a58.0608 58.0608 0 1 1 116.1728 0 58.0608 58.0608 0 0 1-116.224 0zM604.8256 530.3808a58.0608 58.0608 0 1 1 116.1728 0 58.0608 58.0608 0 0 1-116.224 0zM296.448 134.144c41.984 103.2704 121.2416 157.44 230.912 157.44 109.7216 0 187.904-57.344 233.0112-157.3888 6.4512-16.128-28.3136-23.296-34.816-7.168-32.256 77.4144-113.2544 132.8128-197.12 132.8128-83.9168 0-164.4032-55.3984-196.7104-132.8128-6.4512-9.728-41.728-8.96-35.328 7.168z"  horiz-adv-x="1024" />

    
    <glyph glyph-name="buzhou" unicode="&#58957;" d="M383.6 512.4v-61.5l75.7 66.4v-327.2h55.5V577.7h-55.5l-75.7-65.3z m490.5-62.9c-31.4 194.3-199.8 342.7-402.9 342.7C245.7 792.2 63 609.4 63 384c0-225.4 182.7-408.2 408.2-408.2 203.1 0 371.6 148.4 402.9 342.7L961 384l-86.9 65.5zM471.2 30.2c-195.4 0-353.8 158.4-353.8 353.8s158.4 353.8 353.8 353.8S824.9 579.4 824.9 384 666.6 30.2 471.2 30.2z"  horiz-adv-x="1024" />

    
    <glyph glyph-name="buzhou1" unicode="&#58958;" d="M540.8 386.1c29.8 14.7 48.3 41.2 48.3 82.5 0 64-46.7 108-112.3 108-61.9 0-110.2-39.6-113.4-105.3h55.4c2.7 34.2 24.4 55.4 58.1 55.4 31.5 0 57-20.6 57-59.7 0-35.3-18.5-58.6-58.6-58.6h-9.2V360h9.2c43.4 0 64.6-24.4 64.6-63.5 0-40.7-27.1-64-63-64-32 0-60.8 17.4-63 58.6h-55.4c2.2-75.4 56.4-108.5 118.3-108.5 64.6 0 118.3 38 118.3 112.3 0 47.7-21.2 76.5-54.3 91.2zM873 449.3C841.8 643 673.8 791 471.3 791c-224.8 0-407-182.2-407-407s182.2-407 407-407c202.5 0 370.5 148 401.7 341.7l86.6 65.3-86.6 65.3z m-401.7-418c-194.8 0-352.7 157.9-352.7 352.7 0 194.8 157.9 352.7 352.7 352.7S824 578.8 824 384c0-194.8-157.9-352.7-352.7-352.7z"  horiz-adv-x="1024" />

    
    <glyph glyph-name="buzhou2" unicode="&#58959;" d="M585.1 486.4c0 67.4-46 109.6-112.9 109.6-66.3 0-113.4-43.8-113.4-110.2h55.9c0 43.8 27.9 60.3 57.5 60.3 36.2 0 57-24.1 57-59.2 0-19.7-6-34-20.8-52.1L358.2 252.4v-49.9h226.9v49.9h-159L548.3 402c24.2 29.6 36.8 49.9 36.8 84.4zM876.6 450C845 645.6 675.4 795 470.9 795 243.9 794.9 60 611 60 384s184-410.9 410.9-410.9c204.5 0 374.1 149.4 405.7 345l87.5 66-87.5 65.9zM470.9 27.9c-196.7 0-356.2 159.5-356.2 356.1 0 196.7 159.5 356.2 356.2 356.2S827.1 580.7 827.1 384 667.6 27.9 470.9 27.9z"  horiz-adv-x="1024" />

    
    <glyph glyph-name="yanjing" unicode="&#58897;" d="M999.424 558.592c10.752 15.872 7.168 37.376-7.168 50.176-15.872 12.288-36.864 8.704-49.664-7.168-1.536-1.536-197.632-235.52-430.592-235.52-225.792 0-430.592 235.52-432.64 237.568-12.288 14.336-35.328 15.872-49.664 3.584-14.336-12.288-15.872-35.84-3.584-50.176 3.584-5.12 46.08-53.76 113.152-107.008L49.664 355.328c-14.336-14.336-12.288-37.376 1.536-50.176 3.584-7.168 12.288-10.752 20.992-10.752 8.704 0 17.408 3.584 24.576 10.752l97.28 101.888c46.08-32.256 100.352-62.464 160.768-83.968l-36.864-126.976c-5.12-19.456 5.12-39.424 24.576-44.544H353.28c15.872 0 30.208 10.752 33.28 26.624l36.864 126.976c28.16-5.12 58.368-8.704 88.064-8.704s59.904 3.584 88.064 8.704l36.864-124.928c3.584-15.872 19.456-26.624 33.28-26.624 3.584 0 7.168 0 8.704 1.536 19.456 5.12 30.208 25.088 24.576 44.544l-36.864 124.928c59.904 21.504 114.688 51.712 160.768 83.968l95.232-99.84c7.168-7.168 15.872-10.752 24.576-10.752s17.408 3.584 24.576 10.752c14.336 14.336 14.336 35.84 1.536 50.176l-90.112 94.72c74.24 53.248 116.736 104.96 116.736 104.96z"  horiz-adv-x="1024" />

    
    <glyph glyph-name="tixian1" unicode="&#58888;" d="M848 32h-640c-21.36064 0-41.45664 10.60864-56.576 25.728-15.104 15.08864-23.424 37.47328-23.424 58.84928V576h32c0-16 4.992-24.87808 14.06464-33.95072a47.6928 47.6928 0 0 1 33.93536-14.04928h640c12.81536 0 24.87808-2.70336 33.93536-11.776 9.07264-9.05728 14.06464-18.816 14.06464-31.64672v-400c0-12.81536-5.00736-27.16672-14.06464-36.224-9.05728-9.05728-21.12-16.35328-33.93536-16.35328zM160 516.54656v-399.98464c0-12.83072 4.992-27.16672 14.04928-36.224 9.07264-9.05728 21.13536-16.33792 33.95072-16.33792h640c4.27008 0 8.28928 3.95264 11.31008 6.97856s4.68992 9.32864 4.68992 13.59872V484.57728c0 4.27008-1.664 6.00064-4.68992 9.02144-3.02592 3.02592-7.04 2.40128-11.31008 2.40128h-640c-17.536 0-34.22208 10.17344-48 20.54656zM816 496H208c-21.36064 0-41.45664 10.60864-56.576 25.71264C136.32 536.832 128 558.06464 128 579.42528s8.32 39.74656 23.424 54.85056c15.11936 15.11936 35.21536 21.72928 56.576 21.72928h256a16.00512 16.00512 0 0 0 0-32h-256c-12.81536 0-24.87808-2.70336-33.95072-11.776-9.05728-9.05728-14.04928-19.968-14.04928-32.79872s4.992-26.59328 14.06464-35.66592c9.05728-9.05728 21.12-15.75936 33.93536-15.75936h608a16 16 0 1 0 0-32.00512zM800 548.57728a15.99488 15.99488 0 0 0-16 16v48c0 4.27008-1.664 6.00064-4.68992 9.02144-3.02592 3.02592-7.04 2.40128-11.31008 2.40128h-80a15.99488 15.99488 0 1 0 0 32H768c12.81536 0 24.87808-2.70336 33.93536-11.776 9.07264-9.05728 14.06464-18.816 14.06464-31.64672v-48a15.99488 15.99488 0 0 0-16-16zM231.12192 502.24128l-14.23872 28.65664 393.63072 195.51744a48.09728 48.09728 0 0 0 38.06208 2.01728 48.23552 48.23552 0 0 0 27.52-26.35264l75.648-179.44064-29.50144-12.416-75.63264 179.42528a15.90272 15.90272 0 0 1-9.16992 8.78592 15.90272 15.90272 0 0 1-12.672-0.67072L231.12192 502.24128zM896 224h-208c-21.376 0-41.472 10.60864-56.576 25.728-15.08864 15.08864-23.424 36.32128-23.424 57.69728s8.33536 39.76192 23.43936 54.85056c15.08864 15.11936 35.18464 21.72928 56.56064 21.72928H896v-160.00512z m-208 128c-12.83072 0-24.87808-2.70336-33.92-11.776-9.088-9.05728-14.08-19.968-14.08-32.79872s4.992-26.59328 14.06464-35.63008c9.05728-9.088 21.10464-15.79008 33.93536-15.79008h176v96h-176z"  horiz-adv-x="1024" />

    
    <glyph glyph-name="yonghu" unicode="&#58931;" d="M85.2-128h853.2c0 174-104.8 323.2-254 389.6 100.8 59.2 168.8 167.6 168.8 293.2C853.2 743.2 700.4 896 512 896S171.2 743.2 171.2 554.8c0-125.2 68.4-233.6 168.8-293.2-150-66.4-254.8-215.6-254.8-389.6z m598 597.2c0-94.4-76.4-170.8-170.8-170.8s-170.8 76.4-170.8 170.8h341.6z"  horiz-adv-x="1024" />

    
    <glyph glyph-name="-kulian" unicode="&#58921;" d="M823.466667 192c2.133333 0 2.133333 0 4.266666-2.133333 40.533333 59.733333 64 134.4 64 211.2 0 209.066667-170.666667 379.733333-379.733333 379.733333s-379.733333-170.666667-379.733333-379.733333c0-78.933333 23.466667-151.466667 64-211.2 2.133333 0 2.133333 0 4.266666 2.133333-40.533333-17.066667-68.266667-57.6-68.266666-104.533333 0-64 51.2-115.2 115.2-115.2 53.333333 0 100.266667 38.4 110.933333 87.466666v-4.266666c46.933333-21.333333 100.266667-32 155.733333-32 55.466667 0 106.666667 12.8 155.733334 32v4.266666c12.8-51.2 57.6-87.466667 110.933333-87.466666 64 0 115.2 51.2 115.2 115.2-4.266667 46.933333-32 85.333333-72.533333 104.533333z m-578.133334-177.066667c-40.533333 0-72.533333 32-72.533333 72.533334s32 72.533333 72.533333 72.533333 72.533333-32 72.533334-72.533333-32-72.533333-72.533334-72.533334zM661.333333 87.466667c0-6.4 0-12.8 2.133334-19.2 0 4.266667-2.133333 10.666667-2.133334 19.2v14.933333c-44.8-23.466667-96-36.266667-151.466666-36.266667-55.466667 0-106.666667 12.8-151.466667 36.266667v-14.933333c0-6.4 0-12.8-2.133333-19.2 2.133333 6.4 2.133333 12.8 2.133333 19.2 0 64-51.2 115.2-115.2 115.2-6.4 0-10.666667 0-17.066667-2.133334 4.266667 0 6.4 2.133333 10.666667 2.133334-42.666667 55.466667-66.133333 125.866667-66.133333 200.533333 0 185.6 151.466667 337.066667 337.066666 337.066667 185.6 0 337.066667-151.466667 337.066667-337.066667 0-74.666667-25.6-145.066667-66.133333-200.533333 4.266667 0 6.4-2.133333 10.666666-2.133334-6.4 0-10.666667 2.133333-17.066666 2.133334-59.733333-2.133333-110.933333-53.333333-110.933334-115.2z m-454.4 106.666666c4.266667 2.133333 8.533333 2.133333 12.8 4.266667-4.266667 0-8.533333-2.133333-12.8-4.266667z m608 0c-4.266667 2.133333-8.533333 2.133333-12.8 4.266667 4.266667 0 8.533333-2.133333 12.8-4.266667z m-38.4-179.2c-40.533333 0-72.533333 32-72.533333 72.533334s32 72.533333 72.533333 72.533333 72.533333-32 72.533334-72.533333-32-72.533333-72.533334-72.533334zM516.266667 311.466667c-138.666667 0-151.466667-100.266667-151.466667-102.4-2.133333-10.666667 6.4-21.333333 19.2-23.466667 10.666667-2.133333 21.333333 6.4 23.466667 19.2 0 2.133333 8.533333 64 108.8 64 100.266667 0 108.8-61.866667 108.8-64 2.133333-10.666667 12.8-19.2 23.466666-19.2 10.666667 2.133333 19.2 10.666667 19.2 23.466667 0 2.133333-12.8 102.4-151.466666 102.4zM674.133333 567.466667c-51.2 0-72.533333-64-76.8-102.4-2.133333-10.666667 8.533333-21.333333 19.2-23.466667 12.8 0 21.333333 8.533333 23.466667 19.2 2.133333 19.2 12.8 64 34.133333 64s32-44.8 36.266667-64c2.133333-10.666667 10.666667-19.2 21.333333-19.2h2.133334c10.666667 2.133333 19.2 12.8 19.2 23.466667-4.266667 38.4-25.6 102.4-78.933334 102.4zM386.133333 524.8c21.333333 0 32-44.8 36.266667-64 2.133333-10.666667 10.666667-19.2 21.333333-19.2h2.133334c10.666667 2.133333 19.2 12.8 19.2 23.466667-4.266667 38.4-25.6 102.4-76.8 102.4-51.2 0-72.533333-64-76.8-102.4-2.133333-10.666667 8.533333-21.333333 19.2-23.466667 10.666667-2.133333 21.333333 8.533333 23.466666 19.2 0 19.2 12.8 64 32 64z"  horiz-adv-x="1024" />

    
    <glyph glyph-name="weixuanze" unicode="&#58919;" d="M511.5 750c201.2 0 365.9-164.6 365.9-365.9 0-201.2-164.6-365.9-365.9-365.9-201.2 0-365.9 164.6-365.9 365.9 0.1 201.3 164.7 365.9 365.9 365.9m0 45.7c-226.4 0-411.6-185.2-411.6-411.6 0-226.4 185.2-411.6 411.6-411.6 226.4 0 411.6 185.2 411.6 411.6 0 226.4-185.2 411.6-411.6 411.6z m0 0"  horiz-adv-x="1024" />

    
    <glyph glyph-name="hangqing" unicode="&#58988;" d="M866.986667-18.773333H147.911111c-18.204444 0-31.857778 15.928889-31.857778 31.857777v204.8c0 34.133333 15.928889 50.062222 34.133334 34.133334l97.848889-77.368889c13.653333-11.377778 31.857778-27.306667 43.235555-13.653333l111.502222 134.257777c11.377778 13.653333 29.582222 31.857778 43.235556 20.48l95.573333-84.195555c13.653333-11.377778 40.96-29.582222 50.062222-15.928889l238.933334 286.72c31.857778 36.408889 68.266667 27.306667 68.266666-15.928889v-473.315556c0-15.928889-15.928889-31.857778-31.857777-31.857777zM587.093333 333.937778c-9.102222-11.377778-22.755556-18.204444-36.408889-20.48-13.653333-2.275556-29.582222 2.275556-38.684444 11.377778l-109.226667 91.022222-109.226666-143.36c-9.102222-11.377778-20.48-18.204444-36.408889-20.48H250.311111c-11.377778 0-25.031111 4.551111-34.133333 11.377778l-95.573334 77.368888c-22.755556 18.204444-25.031111 52.337778-6.826666 75.093334s52.337778 25.031111 75.093333 6.826666l52.337778-43.235555 109.226667 143.36c9.102222 11.377778 22.755556 18.204444 36.408888 20.48 13.653333 2.275556 29.582222-2.275556 40.96-11.377778l109.226667-91.022222 141.084445 175.217778-38.684445 31.857777c-27.306667 22.755556-20.48 47.786667 13.653333 54.613334l202.524445 43.235555c36.408889 6.826667 45.511111-9.102222 25.031111-38.684444L587.093333 333.937778z m0 0"  horiz-adv-x="1024" />

    
    <glyph glyph-name="chicangyingkui" unicode="&#58913;" d="M508.117944 733.816344c95.757372 0 185.47599-37.095198 252.764954-105.246841 67.288964-67.288964 105.246841-157.870261 105.246841-252.764954 0-197.553496-160.458298-358.011794-358.011795-358.011794s-358.011794 160.458298-358.011794 358.011794 160.458298 358.011794 358.011794 358.011795m0 51.760741c-226.021904 0-409.772536-183.750632-409.772535-409.772536s183.750632-409.772536 409.772535-409.772536 409.772536 183.750632 409.772536 409.772536-182.887953 409.772536-409.772536 409.772536zM751.393429 191.191238h-485.68829v-43.133951h485.68829v43.133951zM407.339781 430.30861l24.413816-24.379309-154.850884-155.032047-24.413817 24.387936zM708.811592 535.382915l24.413817-24.379309-216.428914-216.67909-24.413816 24.387936zM646.146588 555.241786h105.246841v-35.36984h-105.246841zM717.748947 554.379107h34.507161v-105.246841h-34.507161zM387.386015 402.245661l24.387936 24.413817 118.411323-118.273294-24.387936-24.413817z"  horiz-adv-x="1024" />

    
    <glyph glyph-name="xuanzhong" unicode="&#58911;" d="M511.4112 872.27392C242.21184 871.94624 23.3984 652.65152 23.72608 383.4112c0.32256-269.19936 219.6224-488.00768 488.85248-487.68 269.20448 0.32256 488.0128 219.62752 487.68512 488.8576C999.94624 653.7881600000001 780.6464 872.59648 511.4112 872.27392L511.4112 872.27392M814.85824 549.39648L446.99136 180.6848c-10.5472-10.57792-27.63776-10.57792-38.21568-0.03584l-199.86432 199.37792c-10.55232 10.55232-10.57792 27.63776-0.03072 38.18496 10.5472 10.57792 27.63264 10.57792 38.21568 0.03584l180.72576-180.30592 348.78976 349.60384c10.5472 10.5472 27.63264 10.57792 38.21568 0.03072C825.3696 577.0649599999999 825.40032 559.9744000000001 814.85824 549.39648L814.85824 549.39648M814.85824 549.39648L814.85824 549.39648z"  horiz-adv-x="1024" />

    
    <glyph glyph-name="tongguo1" unicode="&#58891;" d="M843.6 646.133333l17.2-14.133333 5.333333 21.2 19.2 11.333333-19.2 11.333334-5.333333 21.2-17.2-14.133334-22.533333 1.733334 8.666666-20.133334-8.666666-20.133333 22.533333 1.733333zM681.733333-7.733333000000016c-178.533333 0-328.666667 122.8-372.533333 289.333333l-23.733333 6.4c42.266667-182 203.6-317.466667 396.266666-317.466667 116.8 0 222.133333 49.866667 296.4 129.6l-23.733333 6.4c-69.733333-70.533333-166.133333-114.266667-272.666667-114.266666zM410.8 178.39999999999998l17.466667-14.266667 4.133333 21.466667 18.266667 11.6-19.333334 11.466667-6.266666 21.466666-16.133334-14.4-22 1.6 9.466667-20.4-7.466667-20.4 21.866667 1.866667zM681.733333 632c81.2 0 153.2-39.733333 198.133334-101.066667l31.466666-8.533333c-46.933333 78.666667-132.133333 131.2-229.466666 131.2-45.466667 0-90-11.6-129.6-33.866667l31.333333-8.533333c30.8 13.866667 64.266667 20.8 98.133333 20.8z m29.066667 91.866667l-13.066667 17.333333-10.266666-19.866667-21.333334-7.466666 15.733334-15.066667-0.133334-21.866667 20 10.533334 21.333334-6.133334-3.333334 21.6 13.2 18.133334-22.133333 2.8zM681.733333 772.933333c178.533333 0 328.666667-122.666667 372.533334-289.333333l23.733333-6.4C1035.866667 659.2 874.4 794.666667 681.733333 794.666667c-116.8 0-222.133333-49.866667-296.4-129.6l23.733334-6.4c69.733333 70.666667 166.266667 114.266667 272.666666 114.266666zM950.533333 587.733333l-18.533333 13.066667-2.666667-21.733333-17.466666-12.933334L932 556l7.733333-20.933333 15.2 15.466666 22.266667-0.133333-10.933333 19.733333 6 20.933334-21.733334-3.333334z m-405.333333 105.733334l-17.733333 12.4-3.866667-22-18.133333-13.6 19.466666-9.466667 6.533334-20.933333 15.866666 16.266666 22.133334 0.8-9.733334 19.466667 7.2 21.333333-21.733333-4.266666z m646.533333-269.6L260.533333 676.533333c-22.8 6.133333-46.4-7.466667-52.533333-30.666666l-66.533333-251.333334c-6.133333-23.066667 7.466667-46.933333 30.266666-53.066666l931.333334-252.533334c22.933333-6.133333 46.4 7.466667 52.533333 30.666667l66.533333 251.333333c6 22.933333-7.466667 46.8-30.4 52.933334z m6.8-58l-60.933333-230.4c-4.533333-17.333333-22.266667-27.6-39.333333-23.066667L187.733333 359.46666700000003c-17.2 4.666667-27.333333 22.533333-22.666666 39.866666l60.933333 230.4c4.533333 17.333333 22.266667 27.6 39.333333 22.933334l910.533334-246.933334c17.2-4.666667 27.333333-22.4 22.666666-39.866666zM550.266667 108.79999999999995l-17.066667 14.133333-5.2-21.066666-19.066667-11.333334 19.066667-11.333333 5.2-21.066667 17.066667 14.133334 22.4-1.733334-8.533334 20 8.533334 20-22.4-1.733333z m286.4-36.933333l17.6-12.4 3.733333 22 18 13.6-19.466667 9.466666-6.533333 20.8-15.733333-16.133333-22-0.666667 9.6-19.466666-7.066667-21.333334 21.866667 4.133334z m-154.933334-29.733334l13.066667-17.333333 10.266667 19.733333 21.2 7.466667-15.6 15.066667 0.133333 21.866666-19.866667-10.533333-21.066666 6.133333 3.333333-21.466666-13.2-18.133334 21.733333-2.8z m98.4 111.733334c-30.933333-13.733333-64.4-20.666667-98.266666-20.666667-81.2 0-153.2 39.733333-198.133334 101.066667l-31.466666 8.533333c46.933333-78.666667 132.133333-131.2 229.466666-131.2 45.466667 0 90.133333 11.6 129.6 33.866667l-31.2 8.4zM509.333333 490.8c-0.933333 3.466667-2.8 8.8-5.466666 16-5.333333 16.266667-9.333333 28.133333-11.866667 35.2l-31.066667-7.2c5.2-16.933333 9.733333-34.666667 13.866667-53.2l34.533333 9.2zM468.266667 374.66666699999996l23.866666 88.8-51.6 13.866666-8.533333-31.733333 19.866667-5.333333-15.333334-57.066667-26.133333-14.266667 3.733333-36.933333c14.266667 9.733333 25.466667 16.4 33.6 20.133333 6.933333-17.466667 22.133333-29.6 45.6-36.533333 15.866667-4.933333 31.733333-9.6 47.733334-13.866667l73.333333-19.733333c2.8 5.733333 7.2 12.266667 13.066667 19.733333 1.2 2.266667 2.4 4.266667 3.466666 5.866667-47.2 12-88.266667 23.066667-123.2 33.066667-22.533333 5.466667-35.6 16.8-39.466666 34zM517.066667 501.333333l27.2-7.333333-14.4-6.8c1.466667-1.733333 4.266667-4.4 8.533333-8.133333 7.333333-6.533333 12.4-11.466667 15.466667-14.8l-42.533334 11.466666-32.133333-119.6 29.866667-8 8 29.866667 26.266666-7.066667-7.6-28.133333 29.866667-8 7.6 28.133333 28.133333-7.6-0.533333-1.866666c-0.8-5.6-4.666667-7.466667-11.2-5.733334-7.2 2-12.533333 3.733333-16 5.333334 0.4-7.866667 0.533333-16 0.266667-24.4 4.266667-1.2 9.466667-2.266667 15.6-3.2l8.133333-2.133334c18.266667-4.266667 29.466667 3.733333 33.6 24l24.133333 89.6-44.4 12 48 12.4 6.8 25.333334-142.133333 38.266666-6.533333-23.6z m31.866666-108.533333l-26.266666 7.066667 3.466666 12.666666 26.266667-7.066666-3.466667-12.666667z m58-15.6l-28.133333 7.6 3.466667 12.666667 28.133333-7.6-3.466667-12.666667z m12.4 46.133333L616 410.666667l-28.133333 7.6 3.466666 12.666666 28-7.6z m-5.466666 52l-29.2-7.733333-20.533334 21.066667 49.733334-13.333334z m-55.866667-49.066666l-26.266667 7.066666 3.466667 12.666667 26.266667-7.066667-3.466667-12.666666z m195.2-123.466667l22.933333 85.2-57.066666 15.333333-8.533334-31.733333 24.4-6.533333-14.4-53.466667c-10.933333-4.8-18.133333-8.4-21.333333-10.8-3.466667-1.6-6.8-3.2-10.133333-5.066667l2.933333-39.6c3.333333 2.933333 11.2 8 23.466667 15.066667 5.333333 3.066667 9.6 5.466667 12.666666 7.333333 8-18.4 23.466667-30.666667 46.4-36.8 14.266667-4.533333 30.133333-9.466667 47.466667-14.666666l69.733333-18.8c6.133333 10.666667 12.133333 19.733333 18 27.2-47.866667 12.266667-87.466667 22.8-118.666666 31.866666-19.333333 4.666667-32 16.4-37.866667 35.466667z m42.533333 110.933333c-5.866667 17.466667-12.266667 34.666667-19.066666 51.733334l-31.733334-6c6-18.133333 11.333333-36.4 16.266667-54.933334l34.533333 9.2zM927.2 426l-34.4 9.2-9.466667-35.333333-81.466666 21.866666-7.733334-28.933333 81.466667-21.866667-16.666667-61.6c-1.866667-11.733333-8.8-15.733333-20.666666-11.866666-10.933333 2.933333-21.733333 6.133333-32.4 9.733333 0.8-9.333333 0.266667-20.8-1.466667-34.533333 18.133333-4.933333 31.466667-8.133333 40.133333-9.866667 25.466667-6.266667 41.2 4.133333 47.2 31.066667l18.266667 67.866666 28.133333-7.6 7.733334 28.933334-28.133334 7.6 9.466667 35.333333zM810.533333 317.46666700000003l32.266667 11.733333c-7.733333 17.2-15.866667 34.266667-24.133333 51.2l-29.066667-10.666667c0.666667-2.133333 2.133333-5.466667 4.133333-9.866666 7.466667-18.133333 13.066667-32.266667 16.8-42.4z"  horiz-adv-x="1365" />

    
    <glyph glyph-name="up" unicode="&#58902;" d="M537.867 730.075l0-735.75700001c0-20.911-16.951-37.862-37.862-37.862s-37.862 16.951-37.862 37.862l0 735.75700001c0 20.911 16.951 37.862 37.862 37.862s37.862-16.951 37.862-37.862zM826.552 508.472c0.001-9.281-3.393-18.582-10.24599999-25.886-14.301-15.24-38.247-16.00100001-53.48800001-1.701l-256.866 241.03-256.868-241.03c-15.24-14.301-39.186-13.538-53.487 1.701-14.302 15.241-13.537 39.188 1.702 53.488l282.761 265.326c14.56 13.662 37.227 13.662 51.786 0l282.76-265.326c7.939-7.449 11.949-17.514 11.94900001-27.603z"  horiz-adv-x="1024" />

    
    <glyph glyph-name="yinlian" unicode="&#58907;" d="M199.6128 704h256c38.4 0 57.6-32 51.2-64L385.2128 128c-6.4-38.4-44.8-64-76.8-64h-256c-38.4 0-57.6 32-51.2 64l121.6 512c6.4 32 44.8 64 76.8 64M436.4128 704h294.4c38.4 0 19.2-32 12.8-64l-121.6-512c-6.4-38.4-6.4-64-44.8-64H289.2128c-38.4 0-57.6 32-51.2 64l121.6 512c6.4 32 38.4 64 76.8 64M718.0128 704h256c38.4 0 57.6-32 51.2-64l-121.6-512c-6.4-38.4-44.8-64-76.8-64h-256c-38.4 0-57.6 32-51.2 64L641.2128 640c6.4 32 44.8 64 76.8 64M673.2128 243.2h25.6l6.4 19.2h-25.6l-6.4-19.2z m19.2 64l-6.4-25.6s6.4 6.4 12.8 6.4h12.8l6.4 19.2h-25.6z m12.8 38.4l-6.4-25.6h25.6l6.4 19.2-25.6 6.4z m57.6 0l-32-102.4h6.4l-6.4-19.2h-6.4v-6.4h-32v6.4h-57.6l6.4 19.2h6.4l32 102.4 6.4 19.2h32v-12.8s6.4 6.4 12.8 6.4h51.2l-12.8-12.8h-6.4zM775.6128 364.8h32v-12.8h12.8l-6.4-19.2h-19.2c-12.8 0-19.2 6.4-19.2 12.8v19.2z m0-96h-32l6.4 19.2h32l6.4 12.8h-32l6.4 19.2h96l-6.4-19.2h-32l-6.4-12.8h32l-6.4-19.2h-32l-6.4-6.4h12.8l6.4-19.2v-6.4h12.8l-6.4-25.6h-12.8-6.4-6.4l-6.4 6.4-6.4 19.2-12.8-19.2c-6.4-6.4-12.8-12.8-25.6-12.8h-25.6l6.4 19.2h12.8l6.4 6.4c6.4 6.4 25.6 38.4 25.6 38.4zM442.8128 320h83.2l-6.4-19.2h-38.4v-19.2H513.2128l-6.4-19.2h-32l-6.4-25.6s6.4-6.4 12.8-6.4h19.2l-6.4-19.2H449.2128h-6.4s-6.4 0-6.4 6.4c0 0-6.4 6.4 0 6.4l12.8 38.4h-25.6l6.4 19.2H449.2128l6.4 19.2h-19.2l6.4 19.2z m51.2 32h32v-19.2h-51.2v-6.4h-6.4c-6.4 0-12.8-6.4-19.2-6.4h-12.8l6.4 19.2h12.8l6.4 6.4 6.4 12.8h32c0 6.4-6.4-6.4-6.4-6.4z m64-32s6.4 6.4 25.6 12.8h25.6l6.4 12.8h-51.2l-6.4-25.6z m44.8-6.4h-44.8v-6.4h44.8v6.4z m-57.6 51.2h25.6v-12.8l12.8 12.8c6.4 0 19.2 6.4 19.2 6.4h44.8l-12.8-57.6c0-6.4-6.4-12.8-6.4-19.2l-6.4-6.4c-6.4 0-6.4 0-12.8-6.4H551.6128l-12.8-38.4v-6.4h25.6l-6.4-25.6H513.2128l-6.4 6.4v12.8l38.4 134.4zM628.4128 281.6v-12.8c0-6.4 0-6.4-6.4-6.4 0 0-6.4-6.4-12.8-6.4h-12.8V236.8H615.6128l-6.4-19.2h-44.8v64h25.6v-12.8h12.8v6.4c0 6.4 25.6 6.4 25.6 6.4z m-396.8 256c0-6.4-19.2-83.2-19.2-83.2 0-19.2-6.4-25.6-12.8-38.4-6.4 0-12.8-6.4-19.2-6.4-12.8 0-19.2 6.4-19.2 19.2v6.4l6.4 19.2s19.2 76.8 19.2 83.2h-44.8v-6.4L122.8128 448v-32c0-6.4 0-12.8 6.4-19.2 0-6.4 25.6-12.8 38.4-12.8 19.2 0 32 6.4 44.8 12.8 19.2 12.8 25.6 32 32 44.8V448s19.2 76.8 25.6 89.6h-38.4M340.4128 384h-32c0 6.4 0 12.8 6.4 19.2v6.4c0 12.8 6.4 25.6 6.4 32 0 0 0 6.4-6.4 6.4h-12.8c0-6.4-6.4-25.6-6.4-32-6.4-19.2-6.4-19.2-6.4-25.6-12.8-6.4-19.2-6.4-32-6.4 0 12.8 0 25.6 6.4 32 6.4 32 6.4 38.4 6.4 57.6 12.8 0 19.2 0 32 6.4v-6.4s6.4 0 6.4 6.4c12.8-6.4 19.2 0 25.6 0 6.4 0 12.8 0 19.2-12.8v-38.4c-12.8-25.6-12.8-25.6-12.8-44.8 0 6.4 0 0 0 0z m51.2 19.2h-38.4c0 6.4 0 12.8 6.4 12.8 0 0 0 6.4 6.4 12.8 0 12.8 6.4 19.2 6.4 25.6v19.2h38.4l-6.4-19.2c0-6.4 0-12.8-6.4-19.2 0-12.8-6.4-19.2-6.4-19.2v-12.8zM474.8128 448s-6.4-12.8-6.4-19.2c0-6.4-6.4-6.4-12.8-6.4 0 0-6.4 0-6.4 6.4V448c6.4 12.8 6.4 25.6 19.2 25.6 6.4 0 6.4-6.4 6.4-25.6m32 0c6.4 19.2 0 25.6-6.4 32-6.4 12.8-19.2 12.8-32 12.8-6.4 0-25.6 0-38.4-12.8-6.4-6.4-12.8-19.2-12.8-32s-6.4-32 12.8-44.8c6.4 0 12.8-6.4 19.2-6.4 12.8 0 32 6.4 38.4 12.8 12.8 19.2 19.2 32 19.2 38.4m332.8 44.8c-12.8 0-19.2-6.4-38.4-6.4v-6.4c0 6.4-6.4 6.4-12.8 6.4s-25.6 0-38.4-12.8c-12.8-6.4-12.8-19.2-19.2-32 0-12.8-6.4-32 12.8-44.8 6.4 0 12.8-6.4 19.2 0 6.4 0 12.8 6.4 19.2 6.4v-6.4h32c0 12.8 6.4 25.6 12.8 51.2 6.4 19.2 12.8 32 12.8 44.8z m-51.2-64c0-6.4-6.4-6.4-12.8-6.4 0 0-6.4 0-6.4 6.4v12.8c6.4 12.8 6.4 25.6 19.2 25.6 6.4 0 12.8-6.4 6.4-19.2V428.8h-6.4m-192-44.8h-32c0 6.4 0 12.8 6.4 19.2v6.4c0 12.8 6.4 25.6 6.4 32 0 0 0 6.4-6.4 6.4h-12.8c0-6.4-6.4-25.6-6.4-32-6.4-19.2-6.4-19.2-6.4-25.6-19.2-6.4-19.2-6.4-38.4-6.4 6.4 12.8 6.4 25.6 12.8 32 0 32 6.4 38.4 6.4 57.6 12.8 0 19.2 0 32 6.4v-6.4s6.4 0 6.4 6.4c12.8-6.4 19.2 0 25.6 0 6.4 0 12.8 0 19.2-12.8v-38.4c-12.8-25.6-12.8-25.6-12.8-44.8 0 6.4 0 0 0 0zM705.2128 537.6H647.6128v-6.4l-6.4-44.8L615.6128 384h38.4c0 6.4 6.4 32 6.4 32l6.4 19.2c19.2 0 44.8 0 64 12.8 12.8 6.4 19.2 25.6 25.6 38.4v12.8c0 6.4 0 12.8-6.4 19.2-6.4 19.2-25.6 19.2-44.8 19.2m12.8-44.8c0-12.8-6.4-19.2-19.2-25.6-6.4-6.4-12.8-6.4-25.6-6.4h-6.4l12.8 44.8v12.8h32c6.4-6.4 12.8-12.8 6.4-25.6m-313.6-25.6c6.4 6.4 12.8 12.8 0 19.2-6.4 6.4-19.2 0-25.6 0-6.4-6.4-12.8-12.8 0-19.2 6.4-6.4 19.2-6.4 25.6 0m544 25.6c-19.2 0-19.2 0-32-6.4-12.8-25.6-12.8-19.2-19.2-38.4v44.8c-19.2 0-19.2-6.4-32-6.4 0-12.8 0-6.4 6.4-25.6v-25.6c0-12.8 0-19.2 6.4-38.4-12.8-19.2-12.8-25.6-25.6-38.4l-19.2-6.4h-12.8l-6.4-19.2h19.2c12.8 0 19.2 6.4 25.6 12.8l12.8 19.2c12.8 19.2 76.8 128 76.8 128"  horiz-adv-x="1026" />

    
    <glyph glyph-name="dingdanjilu" unicode="&#58882;" d="M824.21 815.747h-56.657c-15.67 0-33.752-9.643-33.752-25.314s18.082-31.341 33.752-31.341h56.656c33.752 0 56.656-22.904 56.656-56.656v-652.141c0-33.752-22.904-56.656-56.656-56.656H214.26c-33.753 0-71.122 22.904-71.122 56.656v652.14c0 33.753 22.904 56.656 56.656 56.656h71.121c15.67 0 21.698 15.671 21.698 31.342s-6.027 25.314-21.698 25.314h-71.121c-79.559 0-113.311-49.423-113.311-114.517v-644.908c0-69.915 42.19-119.339 119.338-119.339h612.362c77.148 0 119.338 40.985 119.338 119.339V701.23c0 65.094-39.78 114.517-113.31 114.517zM270.912 560.195c0-15.67 13.26-28.93 28.93-28.93h425.52c15.67 0 28.93 13.26 28.93 28.93s-13.26 28.93-28.93 28.93h-425.52c-15.67 0-28.93-13.26-28.93-28.93z m453.245-127.777H299.844c-15.671 0-28.93-13.26-28.93-28.93 0-15.671 13.259-28.93 28.93-28.93h425.52c15.67 0 28.93 13.26 28.93 28.93-1.206 16.876-14.466 28.93-30.136 28.93z m0-169.966H299.844c-15.671 0-28.93-13.26-28.93-28.93s13.259-28.93 28.93-28.93h425.52c15.67 0 28.93 13.259 28.93 28.93-1.206 16.876-14.466 28.93-30.136 28.93zM414.36 744.626h197.69c22.904 0 42.191 22.904 42.191 49.423s-19.287 49.423-43.396 49.423H414.361c-24.11 0-43.396-22.903-43.396-49.423s19.287-49.423 43.396-49.423z"  horiz-adv-x="1024" />

    
    <glyph glyph-name="geguyingkui" unicode="&#59031;" d="M514.56-88.576C250.368-88.576 35.84 125.952 35.84 390.144S250.368 868.864 514.56 868.864 993.28 654.336 993.28 390.144s-214.528-478.72-478.72-478.72z m0 916.48C273.408 827.904 76.8 631.296 76.8 390.144s196.608-437.76 437.76-437.76S952.32 148.992 952.32 390.144s-196.608 437.76-437.76 437.76zM639.488 440.832c0 14.848 11.264 26.624 25.088 26.624h50.176c13.824 0 25.088-11.776 25.088-26.624v-188.416c0-14.848-11.264-26.624-25.088-26.624h-50.688c-13.824 0-25.088 11.776-25.088 26.624l0.512 188.416z m-148.48 112.64c0 14.848 11.264 26.624 25.088 26.624h50.176c13.824 0 25.088-11.776 25.088-26.624v-295.936c0-14.848-11.264-26.624-25.088-26.624h-50.176c-13.824 0-25.088 11.776-25.088 26.624V553.472z m-147.456-242.176c0 14.848 11.264 26.624 25.088 26.624h50.176c13.824 0 25.088-11.776 25.088-26.624v-53.76c0-14.848-11.264-26.624-25.088-26.624H368.64c-13.824 0-25.088 11.776-25.088 26.624v53.76zM781.824 145.408H261.632c-14.848 0-26.624 11.776-26.624 26.624v430.08c0 14.848 11.776 26.624 26.624 26.624 14.848 0 26.624-11.776 26.624-26.624v-403.456h492.544c14.848 0.512 27.136-10.752 27.648-25.6s-10.752-27.136-25.6-27.648h-1.024z"  horiz-adv-x="1024" />

    
    <glyph glyph-name="zijinmingxi1" unicode="&#58894;" d="M366.421333 323.754667c-12.117333 0-22.016 9.898667-22.016 22.016V414.72h-65.877333c-12.117333 0-22.016 9.898667-22.016 22.016s9.898667 22.016 22.016 22.016h65.877333v46.762667h-65.877333c-12.117333 0-22.016 9.898667-22.016 22.016 0 12.117333 9.898667 22.016 22.016 22.016H324.266667l-64.170667 100.864c-6.485333 10.24-3.584 23.893333 6.826667 30.549333 3.584 2.218667 7.68 3.413333 11.776 3.413333 7.509333 0 14.506667-3.754667 18.602666-10.24l68.437334-107.349333 70.314666 107.52c4.096 6.314667 10.922667 10.069333 18.432 10.069333 4.266667 0 8.533333-1.194667 12.117334-3.584 4.949333-3.242667 8.362667-8.192 9.557333-13.994666 1.194667-5.802667 0.170667-11.605333-3.072-16.554667l-65.706667-100.693333h47.274667c12.117333 0 22.016-9.898667 22.016-22.016 0-12.117333-9.898667-22.016-22.016-22.016h-65.877333v-46.762667h65.877333c12.117333 0 22.016-9.898667 22.016-22.016s-9.898667-22.016-22.016-22.016h-65.877333v-68.949333c-0.170667-12.117333-10.069333-22.016-22.357334-22.016zM718.165333-80.896c-36.522667 0-72.021333 7.168-105.301333 21.333333-32.256 13.653333-61.098667 33.109333-86.016 58.026667-24.917333 24.917333-44.373333 53.76-58.026667 86.016-14.165333 33.450667-21.333333 68.949333-21.333333 105.301333 0 36.522667 7.168 71.850667 21.333333 105.301334 13.653333 32.256 33.109333 61.269333 58.026667 86.016 24.746667 24.746667 53.76 44.373333 86.016 58.026666 33.28 14.165333 68.778667 21.333333 105.301333 21.333334 36.522667 0 72.021333-7.168 105.301334-21.333334 32.256-13.653333 61.269333-33.109333 86.016-58.026666 24.917333-24.746667 44.373333-53.76 58.026666-86.016 14.165333-33.28 21.333333-68.778667 21.333334-105.301334 0-20.138667-2.218667-40.106667-6.485334-59.562666-1.365333-7.168-7.168-32.768-21.845333-61.098667-3.754667-7.338667-11.093333-11.776-19.285333-11.776-3.413333 0-6.826667 0.853333-9.898667 2.389333-5.12 2.730667-9.045333 7.168-10.752 12.629334s-1.365333 11.434667 1.365333 16.554666c1.706667 3.242667 3.242667 6.485333 4.608 9.557334 5.973333 14.336 10.24 27.306667 13.312 40.789333 3.754667 17.749333 5.632 33.792 5.632 50.346667 0 60.586667-23.722667 117.76-66.56 160.597333-43.008 42.837333-100.010667 66.56-160.597333 66.56-60.586667 0-117.76-23.552-160.597333-66.56-42.837333-43.008-66.56-100.010667-66.56-160.597333 0-60.586667 23.722667-117.589333 66.56-160.597334 43.008-42.837333 100.010667-66.56 160.597333-66.56 9.728 0 19.456 0.682667 29.184 2.048 36.352 4.949333 69.461333 17.066667 95.573333 34.816 2.901333 1.877333 5.632 3.925333 8.192 6.144 3.925333 3.072 8.704 4.949333 13.653334 4.949334 6.656 0 12.8-2.901333 16.896-8.021334 7.509333-9.216 6.144-22.869333-3.072-30.378666-4.096-3.413333-8.533333-6.656-12.970667-9.557334-11.093333-7.338667-23.381333-13.994667-38.912-20.650666l-3.072-1.365334c-33.621333-14.165333-69.12-21.333333-105.642667-21.333333zM595.968 239.104c0-11.946667 9.728-21.674667 21.674667-21.674667h199.68c7.850667 0 15.189333 4.266667 18.944 11.264 3.754667 6.997333 3.413333 15.530667-0.853334 22.186667l-49.664 76.629333c-6.485333 10.069333-19.968 12.970667-29.866666 6.314667-10.069333-6.485333-12.8-19.968-6.314667-29.866667l27.989333-43.349333h-159.914666c-11.946667 0-21.674667-9.557333-21.674667-21.504z m0 0M840.533333 140.288c0 11.946667-9.728 21.674667-21.674666 21.674667h-199.68c-7.850667 0-15.189333-4.266667-18.944-11.264-3.754667-6.997333-3.413333-15.530667 0.853333-22.186667l49.664-76.629333c4.096-6.314667 11.093333-9.898667 18.261333-9.898667 4.096 0 8.192 1.194667 11.776 3.413333 10.069333 6.485333 12.8 19.968 6.314667 29.866667l-27.989333 43.349333h159.914666c11.776 0 21.504 9.728 21.504 21.674667z m0 0M261.12 189.952c-13.824 0-24.917333 11.264-24.917333 25.088s11.264 24.917333 24.917333 24.917333h108.202667c13.824 0 24.917333-11.264 24.917333-24.917333 0-13.824-11.264-25.088-24.917333-25.088H261.12zM592.554667 586.752c-13.824 0-24.917333 11.264-24.917334 24.917333 0 13.824 11.264 25.088 24.917334 25.088h108.202666c13.824 0 24.917333-11.264 24.917334-25.088s-11.264-24.917333-24.917334-24.917333h-108.202666zM433.322667 49.834667h-101.205334c-2.901333 0-5.632-0.512-8.192-1.194667H179.2c-23.381333 0-42.325333 18.944-42.325333 42.325333V757.248c0 23.381333 18.944 42.325333 42.325333 42.325333h601.088c23.381333 0 42.325333-18.944 42.325333-42.325333v-254.293333c0-15.36 12.458667-27.818667 27.818667-27.818667 14.336 0 26.282667 10.922667 27.648 24.917333h0.170667V757.248c0 53.930667-43.861333 97.962667-97.962667 97.962667H179.2c-53.930667 0-97.962667-43.861333-97.962667-97.962667v-666.282667c0-53.930667 43.861333-97.962667 97.962667-97.962666l166.570667 1.194666h87.552c15.36 0 27.818667 12.458667 27.818666 27.818667s-12.458667 27.818667-27.818666 27.818667z m0 0"  horiz-adv-x="1024" />

    
    <glyph glyph-name="jisujieqian" unicode="&#58944;" d="M82.253803 210.662571a44.492789 44.492789 0 0 1-44.441588-44.441589 44.492789 44.492789 0 0 1 44.441588-44.441588 44.492789 44.492789 0 0 1 44.441589 44.441588c0 24.550394-19.916795 44.415989-44.441589 44.441589zM983.629578 583.219278a510.284672 510.284672 0 0 1-109.695972 162.71356A510.412672 510.412672 0 0 1 511.949696 895.872a510.361472 510.361472 0 0 1-361.983909-149.939162 509.951873 509.951873 0 0 1-109.721573-162.71356A508.671873 508.671873 0 0 1 0.001024 383.923328c0-25.523194 1.8944-51.020787 5.631999-76.262381a29.849593 29.849593 0 0 1 59.059185 8.806398 457.420686 457.420686 0 0 0-4.991999 67.455983c0 249.369538 202.879949 452.249487 452.249487 452.249487 249.343938 0 452.223887-202.879949 452.223887-452.249487 0-249.343938-202.854349-452.223887-452.223887-452.223887-123.571169 0-238.97594 48.895988-324.940719 137.727966a29.849593 29.849593 0 0 1-42.905589-41.54879A510.284672 510.284672 0 0 1 511.949696-127.999744a510.361472 510.361472 0 0 1 361.98391 149.939163 509.951873 509.951873 0 0 1 109.695972 162.713559 508.799873 508.799873 0 0 1 40.24319 199.27035c0 69.119983-13.542397 136.166366-40.24319 199.29595zM415.94972 40.499414a25.599994 25.599994 0 0 0-24.985594 31.283192l64.127984 282.828729-167.372758 99.020776a25.599994 25.599994 0 0 0-3.327999 41.727989l273.049532 226.124744a25.599994 25.599994 0 0 0 40.959989-26.623994l-54.604786-195.071951 193.100752-123.903969a25.599994 25.599994 0 0 0 3.686399-40.21759L433.434516 47.437012a25.395194 25.395194 0 0 0-17.484796-6.911998zM345.088938 479.155304l152.115162-89.983977a25.599994 25.599994 0 0 0 11.955197-27.699193l-49.791988-219.494345 222.259145 208.537547-181.401555 116.403171a25.574394 25.574394 0 0 0-10.828797 28.415993l37.65759 134.502367-181.964754-150.681563z"  horiz-adv-x="1024" />

    
    <glyph glyph-name="failure" unicode="&#58925;" d="M662.856879 210.10204699999997c-5.911192 0-11.7992 2.192114-16.305945 6.708252L344.806117 518.5047500000001c-8.998899 8.998899-8.998899 23.597201 0 32.597899s23.597201 8.998899 32.597899 0l301.744817-301.694251c8.998699-8.998699 8.998699-23.597201 0-32.597899-4.497551-4.497551-10.392754-6.708252-16.305945-6.708252l0 0L662.856879 210.10224700000003zM361.112062 210.10204699999997c-5.911192 0-11.7992 2.192114-16.305945 6.708252-8.998899 8.998699-8.998899 23.597201 0 32.597899l301.744817 301.694251c8.998699 8.998899 23.597201 8.998899 32.597899 0 9.000698-8.998899 8.998699-23.597201 0-32.597899L377.403816 216.81049800000005c-4.501348-4.497551-10.392954-6.708252-16.305945-6.708252l0 0L361.112062 210.10224700000003zM511.998361-63.070741999999996c-246.499273 0-447.096069 200.54523-447.096069 447.084876 0 246.499273 200.579007 447.059694 447.096069 447.059694 246.499273 0 447.096269-200.573411 447.096269-447.059694C959.09463 137.47368900000004 758.515622-63.070741999999996 511.998361-63.070741999999996L511.998361-63.070741999999996zM511.998361 784.97948c-221.101893 0-400.996324-179.869049-400.996324-400.959749s179.89723-400.996324 400.996324-400.996324c221.101893 0 400.996324 179.898229 400.996324 400.996324C912.994885 605.121624 733.097656 784.97948 511.998361 784.97948 511.998561 784.97948 511.998561 784.97948 511.998361 784.97948z"  horiz-adv-x="1024" />

    
    <glyph glyph-name="xiugai" unicode="&#59209;" d="M345.6 182.4L187.2 144M228.8 297.6L192 147.2l150.4 36.8-113.6 113.6z m20.8 22.4l115.2-115.2 352 352-116.8 115.2-350.4-352z m372.8 374.4l115.2-115.2 86.4 88c16 16 16 40 0 56l-59.2 59.2c-8 8-17.6 11.2-27.2 11.2s-20.8-4.8-27.2-11.2l-88-88zM904-30.4h-784c-17.6 0-32 14.4-32 32s14.4 32 32 32h784c17.6 0 32-14.4 32-32s-14.4-32-32-32z"  horiz-adv-x="1024" />

    
    <glyph glyph-name="down" unicode="&#58910;" d="M486.133 37.924999999999955l0 735.75700001c0 20.911 16.951 37.862 37.862 37.862s37.862-16.951 37.862-37.862l0-735.75700001c0-20.911-16.951-37.862-37.862-37.862s-37.862 16.951-37.862 37.862zM197.448 259.528c-0.001 9.281 3.393 18.582 10.24599999 25.886 14.301 15.24 38.247 16.00100001 53.48800001 1.701l256.866-241.03 256.868 241.03c15.24 14.301 39.186 13.538 53.487-1.701 14.302-15.241 13.537-39.188-1.702-53.488l-282.761-265.326c-14.56-13.662-37.227-13.662-51.786 0l-282.76 265.326c-7.939 7.449-11.949 17.514-11.94900001 27.603z"  horiz-adv-x="1024" />

    
    <glyph glyph-name="jiazaizhong" unicode="&#58933;" d="M525.1 618.2c-14.9 0-27 12.1-27 27V786.1c0 14.9 12.1 27 27 27s27-12.1 27-27v-140.9c0-14.9-12.1-27-27-27zM393 588.2c-9.3 0-18.4 4.8-23.4 13.5l-70.4 122c-7.5 12.9-3 29.4 9.9 36.9 12.9 7.4 29.4 3 36.9-9.9l70.4-122c7.5-12.9 3-29.4-9.9-36.9-4.3-2.5-8.9-3.6-13.5-3.6zM293.5 496.1c-4.6 0-9.2 1.2-13.5 3.6l-122 70.4c-12.9 7.5-17.3 24-9.9 36.9 7.5 12.9 24 17.3 36.9 9.9l122-70.4c12.9-7.5 17.3-24 9.9-36.9-5-8.7-14.1-13.5-23.4-13.5zM253.4 366.6H112.5c-14.9 0-27 12.1-27 27s12.1 27 27 27h140.9c14.9 0 27-12.1 27-27s-12.1-27-27-27zM161.5 164c-9.3 0-18.4 4.8-23.4 13.5-7.5 12.9-3 29.4 9.9 36.9l122 70.4c12.9 7.5 29.4 3 36.9-9.9s3-29.4-9.9-36.9l-122-70.4c-4.3-2.4-8.9-3.6-13.5-3.6zM305.1 13c-4.6 0-9.2 1.2-13.5 3.6-12.9 7.5-17.3 24-9.9 36.9l70.4 122c7.5 12.9 24 17.4 36.9 9.9 12.9-7.5 17.3-24 9.9-36.9l-70.4-122c-5-8.6-14.1-13.5-23.4-13.5zM505-45.9c-14.9 0-27 12.1-27 27V122c0 14.9 12.1 27 27 27s27-12.1 27-27v-140.9c0-14.9-12.1-27-27-27zM707.6 3c-9.3 0-18.4 4.8-23.4 13.5l-70.4 122c-7.5 12.9-3 29.4 9.9 36.9s29.4 3 36.9-9.9l70.4-122c7.5-12.9 3-29.4-9.9-36.9-4.3-2.5-8.9-3.6-13.5-3.6zM858.5 146.6c-4.6 0-9.2 1.2-13.5 3.6l-122 70.4c-12.9 7.5-17.3 24-9.9 36.9 7.5 12.9 24 17.3 36.9 9.9L872 197c12.9-7.5 17.3-24 9.9-36.9-4.9-8.7-14-13.5-23.4-13.5zM917.5 346.5H776.7c-14.9 0-27 12.1-27 27s12.1 27 27 27h140.9c14.9 0 27-12.1 27-27-0.1-14.9-12.2-27-27.1-27zM746.7 478.7c-9.3 0-18.4 4.8-23.4 13.5-7.5 12.9-3 29.4 9.9 36.9l122 70.4c12.9 7.4 29.4 3 36.9-9.9s3-29.4-9.9-36.9l-122-70.4c-4.3-2.5-9-3.6-13.5-3.6zM654.5 578.1c-4.6 0-9.2 1.2-13.5 3.6-12.9 7.5-17.3 24-9.9 36.9l70.4 122c7.5 12.9 24 17.3 36.9 9.9 12.9-7.5 17.3-24 9.9-36.9l-70.4-122c-4.9-8.7-14-13.5-23.4-13.5z"  horiz-adv-x="1024" />

    
    </font>
</defs>
</svg>
