<svg t="1520388098955" class="icon" viewBox="0 0 1024 1024">
  <path d="M794.6 292.4l-9.1 0c5.8-14.3 9.1-30.2 9.1-47.1 0-60.5-42.2-109.8-94.2-109.8-2.6 0-5.1 0.3-7.6 1l-125.6 31.4c-3.8 1-7.3 2.6-10.3 4.7-9-3.6-18.9-5.6-29.2-5.6l-31.4 0c-10.3 0-20.1 2-29.2 5.6-3-2.1-6.5-3.7-10.3-4.7l-125.6-31.4c-2.5-0.6-5-1-7.6-1-51.9 0-94.2 49.3-94.2 109.8 0 16.8 3.3 32.8 9.1 47.1l-9.1 0c-51.9 0-94.2 42.2-94.2 94.1l0 94.1c0 23.2 12.6 43.4 31.4 54.3l0 259.4c0 51.9 42.2 94.1 94.2 94.1l502.3 0c51.9 0 94.2-42.2 94.2-94.1 0-17.3-14-31.4-31.4-31.4-17.4 0-31.4 14-31.4 31.4 0 17.3-14.1 31.4-31.4 31.4l-157 0L606.1 543.4l188.4 0 0 125.5c0 17.3 14 31.4 31.4 31.4 17.4 0 31.4-14 31.4-31.4L857.3 534.9c18.7-10.9 31.4-31.1 31.4-54.3l0-94.1C888.8 334.6 846.5 292.4 794.6 292.4zM543.4 480.6l-62.8 0L480.6 355.1l62.8 0L543.4 480.6zM703.3 198.5c14 2.3 28.5 20.9 28.5 46.8 0 25.9-14.5 44.5-28.5 46.8l-97.1-24.2 0-22.6c0-7.6-1.1-14.9-3.1-21.8L703.3 198.5zM496.3 229.7l31.4 0c8.6 0 15.7 7 15.7 15.7l0 31.4c0 8.6-7.1 15.7-15.7 15.7l-31.4 0c-8.6 0-15.7-7-15.7-15.7l0-31.4C480.6 236.7 487.7 229.7 496.3 229.7zM320.7 198.5l100.2 25c-2 6.9-3.1 14.2-3.1 21.8l0 22.6-97.1 24.2c-14-2.3-28.5-20.9-28.5-46.8C292.2 219.4 306.7 200.8 320.7 198.5zM198 386.5c0-17.3 14.1-31.4 31.4-31.4l188.4 0 0 125.5L198 480.6 198 386.5zM229.4 794.3l0-251 188.4 0 0 282.3-157 0C243.5 825.7 229.4 811.6 229.4 794.3zM543.4 825.7l-62.8 0L480.6 543.4l62.8 0L543.4 825.7zM606.2 355.1l188.4 0c17.3 0 31.4 14.1 31.4 31.4l0.1 94.1L606.2 480.6 606.2 355.1z" p-id="11804"></path>
</svg>
