<svg t="1513211993783" class="icon" viewBox="0 0 1024 1024">
  <path d="M577.6 315.072l-164.032 164.032-6.528-6.528-52.608 52.608 6.528 6.528-6.528 6.528 52.608 52.608 6.528-6.528 164.032 164.032 52.608-52.608-164.032-164.032 164.032-164.032-52.608-52.608zM512 0c-282.752 0-512 229.248-512 512s229.248 512 512 512c282.752 0 512-229.248 512-512s-229.248-512-512-512zM512 945.216c-239.232 0-433.216-193.984-433.216-433.216s193.984-433.216 433.216-433.216c239.232 0 433.216 193.984 433.216 433.216s-193.984 433.216-433.216 433.216z" p-id="1553"></path>
</svg>
