<svg t="1520991446691" class="icon" viewBox="0 0 1024 1024">
  <path d="M362.125039 346.81689h16.488533v0.334621a26.177196 26.177196 0 0 1 4.15974-0.334621c14.380522 0 26.038026 11.658528 26.038026 26.040073 0 14.380522-11.657504 26.037003-26.038026 26.037003-1.416256 0-2.804882-0.116657-4.15974-0.334621v0.334621h-16.488533v86.487793h16.488533v0.334621a26.177196 26.177196 0 0 1 4.15974-0.334621c14.380522 0 26.038026 11.658528 26.038026 26.038026 0 14.382569-11.657504 26.037003-26.038026 26.037003-1.416256 0-2.804882-0.115634-4.15974-0.334621v0.334621h-16.488533v86.48984h16.488533v0.333598a26.278503 26.278503 0 0 1 4.15974-0.333598c14.380522 0 26.038026 11.658528 26.038026 26.038026 0 14.381545-11.657504 26.038026-26.038026 26.038027-1.416256 0-2.805906-0.116657-4.15974-0.334622v0.334622h-16.488533v45.613873h358.977861V302.360376H362.125039v44.456514z m124.780935 17.320481h155.803485c14.381545 0 26.037003 11.658528 26.037003 26.039049s-11.656481 26.038026-26.037003 26.038027H486.905974c-14.380522 0-26.03905-11.657504-26.03905-26.038027s11.658528-26.03905 26.03905-26.039049z m0 80.829933h155.803485c14.381545 0 26.037003 11.658528 26.037003 26.03905 0 14.381545-11.656481 26.038026-26.037003 26.038026H486.905974c-14.380522 0-26.03905-11.657504-26.03905-26.038026S472.525452 444.967304 486.905974 444.967304z m0 80.82891h155.803485c14.381545 0 26.037003 11.658528 26.037003 26.040073 0 14.380522-11.656481 26.038026-26.037003 26.038026H486.905974c-14.380522 0-26.03905-11.658528-26.03905-26.038026 0-14.381545 11.658528-26.040073 26.03905-26.040073z m0 80.829933h155.803485c14.381545 0 26.037003 11.658528 26.037003 26.03905s-11.656481 26.038026-26.037003 26.038026H486.905974c-14.380522 0-26.03905-11.658528-26.03905-26.038026 0-14.381545 11.658528-26.03905 26.03905-26.03905z" p-id="9099" fill="#666666"></path>
</svg>
