<svg t="1520398621432" class="icon" viewBox="0 0 1024 1024">
  <path d="M94.786807 616.919585 94.786807 234.941893c0-21.22644 17.200754-38.433334 38.416961-38.433334l381.616464 0c21.216207 0 38.414915 17.206894 38.414915 38.433334l0 381.979738c0 7.076162-5.731538 12.809747-12.805654 12.809747L107.59246 629.731378C100.518345 629.731378 94.786807 623.997793 94.786807 616.919585zM402.952398 747.776911c0 44.024679-35.673477 79.713506-79.676667 79.713506-44.004213 0-79.678714-35.687804-79.678714-79.713506 0-44.022633 35.673477-79.713506 79.678714-79.713506C367.278921 668.063405 402.952398 703.754279 402.952398 747.776911zM363.113041 747.776911c0-22.011316-17.836227-39.85573-39.839357-39.85573-22.001083 0-39.841404 17.844413-39.841404 39.85573 0 22.013363 17.84032 39.859823 39.841404 39.859823C345.277838 787.636734 363.113041 769.791298 363.113041 747.776911zM254.650771 668.063405 76.104305 668.063405c-7.072069 0-12.805654 5.735631-12.805654 12.811794l0 38.865169c0 7.076162 5.733585 12.811794 12.805654 12.811794L219.216747 732.552162C222.953861 706.907085 235.894591 684.250062 254.650771 668.063405zM819.841204 747.776911c0 44.024679-35.673477 79.713506-79.678714 79.713506s-79.676667-35.687804-79.676667-79.713506c0-44.022633 35.671431-79.713506 79.676667-79.713506S819.841204 703.754279 819.841204 747.776911zM780.003893 747.776911c0-22.011316-17.838274-39.85573-39.841404-39.85573-22.005176 0-39.83731 17.844413-39.83731 39.85573 0 22.013363 17.836227 39.859823 39.83731 39.859823C762.166643 787.636734 780.003893 769.791298 780.003893 747.776911zM960.700325 680.875199l0 38.865169c0 7.076162-5.731538 12.811794-12.805654 12.811794L844.218404 732.552162c-7.414877-50.877761-51.183729-90.110297-104.051821-90.110297-52.880371 0-96.649224 39.234583-104.066147 90.110297L427.333692 732.552162c-3.737114-25.644053-16.675798-48.303122-35.429931-64.488757l197.946304 0L589.850066 301.626665c0-14.152325 11.467169-25.625634 25.611308-25.625634l120.893394 0c34.040281 0 65.853847 16.917298 84.901669 45.140083l77.936023 115.482151C910.621766 453.563076 916.732951 473.534943 916.732951 493.974461l0 174.089967 31.16172 0C954.968787 668.063405 960.700325 673.799036 960.700325 680.875199zM830.795697 439.58062l-62.322417-88.597851c-2.39863-3.406586-6.305613-5.435803-10.472516-5.435803l-97.208972 0c-7.072069 0-12.8077 5.735631-12.8077 12.811794l0 88.595804c0 7.076162 5.733585 12.811794 12.8077 12.811794l159.533436 0C830.699506 459.766358 836.767711 448.068945 830.795697 439.58062z" p-id="22273" fill="#ff9600"></path>
</svg>
