<svg t="1520388223060" class="icon" viewBox="0 0 1024 1024">
  <path d="M1002.031 170.005H406.02c-12.01 0-21.995 10.006-21.995 21.995v64H214.02c-8 0-16 4.01-20.01 10.005L90.009 456 5.998 540.01C1.988 544.022 0.004 548.01 0.004 554.006v236.011c0 12.01 10.005 20.01 21.995 20.01h85.994c10.006 50.006 53.995 85.995 106.006 85.995 50.005 0 93.994-36.01 104-85.994h388.01c10.006 50.005 53.995 85.994 104 85.994 52.011 0 96-36.01 106.006-85.994h85.994c12.011 0 21.995-8 21.995-20.011V192.021c0-12.01-10.005-21.994-21.995-21.994z m-576 43.99h556.01v468.01h-556.01z m280 554.005H318.02c-4.01-16-10.005-29.995-20.01-42.005h428.01c-10.005 12.01-16 26.005-20.01 42.005z m-584-283.99c2.005 0 2.005-2.005 4.01-4.01l100.011-181.995h157.995v384H42.052V564.011z m-80 241.985h85.994c-8 12.01-16 26.005-20.01 42.005H42.009z m171.989 128c-36.01 0-64-29.995-64-64 0-36.011 28.01-64 64-64 34.005 0 64 28.01 64 64 0 34.005-29.995 64-64 64z m596.01 0c-34.005 0-64-29.995-64-64 0-36.011 29.995-64 64-64 36.011 0 64 28.01 64 64 0 34.005-28.01 64-64 64zM916.037 768c-4.01-16-12.01-29.995-20.01-42.005h85.994V768zM182.02 509.995c4.01 2.005 5.995 2.005 10.005 2.005 8 0 16-4.01 20.011-12.01l58.005-116.011h50.006c12.01 0 21.994-10.006 21.994-21.995s-10.005-20.01-21.994-20.01h-64c-8 0-16 4.01-20.011 12.01l-64 128c-4.01 10.005 0 21.995 10.005 28.01z" p-id="20496" fill=""></path>
</svg>
