<svg t="1513212991458" class="icon" viewBox="0 0 1024 1024">
  <path d="M930.944 512l-32 0c0 106.944-43.264 203.52-113.344 273.6-70.144 70.144-166.656 113.344-273.536 113.344-106.944 0-203.52-43.264-273.664-113.344C168.32 715.52 125.12 618.944 125.056 512c0-106.944 43.264-203.52 113.344-273.6C308.544 168.256 405.12 125.056 512.064 124.992c106.944 0 203.456 43.264 273.536 113.344C855.68 308.48 898.944 405.056 898.944 512L930.944 512l32 0c0-249.088-201.792-450.944-450.88-451.008C262.912 61.056 61.12 262.912 61.056 512c0 249.088 201.856 451.008 451.008 451.008 249.088 0 450.88-201.92 450.88-451.008L930.944 512z" p-id="2301"></path>
</svg>
