<svg t="1520305653181" class="icon" viewBox="0 0 1024 1024">
  <path d="M600.19 510.56a40 40 0 0 0 40 40H756.6a40 40 0 0 0 0-80H640.19a40 40 0 0 0-40 40zM156.47 805.21a51.93 51.93 0 0 1-51.87-51.87V271a51.93 51.93 0 0 1 51.87-51.87h539.75a40 40 0 0 0 0-80H156.47C83.75 139.14 24.6 198.3 24.6 271v482.34c0 72.71 59.16 131.87 131.87 131.87a40 40 0 1 0 0-80z m712-666.08a40 40 0 0 0 0 80A51.93 51.93 0 0 1 920.35 271v482.34a51.93 51.93 0 0 1-51.87 51.87H328.73a40 40 0 0 0 0 80h539.75c72.71 0 131.87-59.16 131.87-131.87V271c0-72.7-59.15-131.86-131.87-131.86zM580 510.56a40 40 0 0 0-40-40H274.82a40 40 0 0 0 0 80H540a40 40 0 0 0 40-40z" p-id="233" fill="#c9c9c9"></path>
</svg>
