<svg t="1520991357489" class="icon" viewBox="0 0 1024 1024">
  <path d="M512 68.191078c-245.204631 0-443.808922 198.60429-443.808922 443.808922s198.60429 443.808922 443.808922 443.808922 443.808922-198.60429 443.808922-443.808922S757.203608 68.191078 512 68.191078zM512 201.333448c73.449849 0 133.142369 59.69252 133.142369 133.142369 0 73.671906-59.69252 133.142369-133.142369 133.142369s-133.142369-59.470463-133.142369-133.142369C378.857631 261.025968 438.549128 201.333448 512 201.333448zM512 831.541687c-111.174032 0-208.81177-56.80782-266.284739-142.906757 1.109264-88.096431 177.745217-136.693242 266.284739-136.693242s264.953418 48.596811 266.284739 136.693242C720.81177 774.73489 623.174032 831.541687 512 831.541687z" p-id="2572" fill="#666666"></path>
</svg>
