<svg t="1520398306359" class="icon" viewBox="0 0 1024 1024">
  <path d="M75.183935 940.651932l433.270714-437.368347c0.646995-0.646995 0.862659-1.509654 1.401822-2.156649 0.107832-0.107832 0.43133-0.215665 0.539163-0.323497 15.420038-15.52787 15.312206-40.652828-0.215665-56.072865L72.919453 11.495804c-15.52787-15.420038-40.544994-15.312206-55.965032 0.215665-7.584215 7.692047-11.430237 17.86424-11.430237 27.9286 0 10.172193 3.953856 20.416274 11.753735 28.144265L426.717665 473.449945 18.895405 884.902564c-7.584215 7.692047-11.430237 17.756407-11.430237 27.9286 0 10.280025 3.953856 20.416274 11.753735 28.144265C34.602997 956.359522 59.763897 956.143858 75.183935 940.651932L75.183935 940.651932z" p-id="21503" file="#ff9600"></path>
</svg>
