<svg t="1522131734014" class="icon" viewBox="0 0 1024 1024">
  <path d="M766.272 717.376l0-73.088L960 644.288l0 73.088L766.272 717.376zM657.344 717.376 536.192 717.376c-14.592 0-27.072-8.704-32.832-21.12-4.096-1.728-8.064-4.224-11.456-7.552l-40.512-40 0 80.32L185.088 729.024 185.088 571.328c0-40.32 32.576-73.024 72.704-73.024l121.088 0c30.656 0 56.704 19.072 67.392 46.08 3.712 1.664 7.168 3.904 10.24 6.912l86.4 85.248c2.368 2.304 3.712 5.056 5.248 7.744l109.248 0c20.032 0 36.288 16.384 36.288 36.544C693.632 700.992 677.376 717.376 657.344 717.376zM427.264 376.64c0 53.76-43.392 97.344-96.896 97.344S233.472 430.4 233.472 376.64c0-53.824 43.392-97.344 96.896-97.344S427.264 322.816 427.264 376.64zM524.096 183.424 112.448 183.424l0 657.152 411.712 0 0-90.24 48.384 0 0 138.944L64 889.28 64 134.72l508.48 0 0 170.368L524.096 305.088 524.096 183.424z" p-id="1491" file="#999999"></path>
</svg>
